<svg xmlns="http://www.w3.org/2000/svg" xml:space="preserve" width="400" height="440" fill="#c2a35f" viewBox="-0.6 -1 400 440"><path d="M268.9 9.3c2 .2 3.4-1.8 5.4-2-.4 9-3 20-12.4 23.4-5.8 1.2-10.2-2.2-15.2-3.4-6.8-1-12.4 2.4-19 3.2-17.4 2.8-34.6-1-51.2-3.2-4 .2-9.2 0-11 4.4-.4 2.4 1 4.4 2.8 6 1.4 2.2 4.2 2 6.4 2.4l3.4 3 3-1.8 11-1.2c7.8-2.4 17-.4 23 5 6.8 9.8 5 23.2 12.2 32.6 1.4 2.4 4.4 2.8 7 2.4s5-1.2 6.2-3.8c1.4-3.2-1-6-.8-9.4 0-5.8 3.8-11 8.2-14 9-5.4 20-.6 28 3.8 11 5.4 22 12 33 17.2l-.2 1c7.8 4.4 16 8.2 24.2 12 .8.4-.4.8-.4 1.4 9.4 4.8 20 7.4 30.2 10.8l-1.8 1.8 1.2 1c7.8 2.2 16.2 3.4 24.8 4.2.6.6 1.8.8 1 1.8-3 4.2-7.2 5.2-11.4 6.8-3.2 4-7.8 5-12.4 5.8-3.2 2-6.4 3.2-10.4 3.2h-6c-6.8 3.8-15.4 4-23.2 2.4-5.2-1.2-10.8-3-16.2-1.8-3.8 1.4-6.8-1-9.8-2.2l-8.8-5.2-8 2.8c-2.4 2-5.4 3.2-9 2.8q-2.1 3-6 3l-3.2-.6c-2.2 2.4-6 2-9 2.2-1.8 2-5.2 2.2-7.4 1.2-1.8 1-3.4 2-5.4 1-2.8-2-3.4 2.4-6 2.8.2 2 .8 4.2 1 6.2 8 8.4 21.4 16.2 20 29-.8 2.8-3.8 4-6.2 4.8-1.8-.8-3.2 1-3.4 2.4 0 2.2 2.4 2.4 3.8 3.8l6 2.4c2.2-1.8 5.2-2.4 8.4-2.4l5.2 2.2c2-.8 4.4-1.2 6.2-.2l4.4 3.4c4.2-.2 8 2.2 10 6h.8c.6-1.4-1.2-2.4-2-4-2.8-1.2-4-4.2-5-6.8.2-1.2.2-3.4-1.4-3.4-2-1-2.4-3.2-3.4-4.8l1.8-5-4.2-9 .2-1c5.4-4.4 11.4-8.4 17.8-11.8 5 3.2 9.8 7.4 14 11.8 1 1.4 2 2.8 2 4.8 3 .8 4.4 3.8 5.8 6.2l-.2 2.4 14.4 19.4c1 .8 1.8 0 2.4-.4.8-2.2-.6-4.4-.2-7-.2-4.2 1-8.2 2-12.2-2.2-2.4-3.4-5.4-3.4-9.2.2-2.2.8-4.4 2.4-6 1.4-1.4 3.8-1.8 5.8-1.2 1.2-2 3-4.2 5.4-4.2l4 .4c3.2-1 7.2-.8 10.2.8 13.8-1.8 26 4.8 33 16 6.2 10.2 4.8 25.2-2.2 34.4-3.8 5.8-9.8 9.4-15.8 11.8-.8 1.4.6 3.4-.2 5-.8 3.2-3.2 6.8-6.4 7.8-.8 2-.4 4.2-1 6.2-1.2 2-2 4.2-1.8 7 1.2 2.8 6.8 4.8 4.4 9 2.2 2 4.4 5 5.4 8l-.8 3 1.8 7c-5.4 5.8-12.2 9.4-18.8 13.4-4.2-1-7-5.8-11.8-5.4-2.8-2-3.4-5.8-6.8-7-2.2-2.8-1.8-6.8-5-9l-8.8-10.4c-2.8.6-6.2 1.8-9.2 0-3-1-5.8-4.2-7-7-2.4-.6-4.4-1.8-6.8-2.8l-.6.4c6.4 18.8 7.2 41.6 1.4 61.2l.2.6c-3.8 11.8-9.2 22.4-16 33-6.4 7.4-13.8 15.4-21.8 21.2l-8.2 6c-22.4 13.4-53.4 18.2-79.8 10.8-21-5.8-39.4-18.8-53.6-36.2h-1.4c-3.2 2-6.8 3.8-9 6.8-.2 4.2 4.2 5.2 6 8.4l2.2 4.8.6 5.2c3.2 3.8 5 9.8 3 14.4 2 3.8 3 9 1.2 13.2l.8 3.8c8.2 3.2 17.4 4.2 27 3.8l.6-.6c-3.4-7.8-6.8-15.4-9-23.4l1.4.2c22.4 7.8 50.2 13 74.6 6 1.4-.8 3.2-1.2 5-.6l.2 2c-8.8 17.2-23.8 33.4-41 43-10.4 6-21 11.2-32.2 15v-1.4c2-6.2 4.8-12.2 5.4-19l-1-.6c-15.8 3.8-32.6 1.2-48.2-1.2-2.4 3-5.8 5-9.2 5.2-4.8-1.4-9.4.2-14.8 0-2.2-.2-4.2-.8-6-2-4 0-8.4.4-12-2l-3.2-3c-5.4-.8-11.4-2.8-13.8-8-.2-3.8-5-2.2-7-4.2-2.8-1.4-4.8-4.2-5-7.4-3.4-2.2-8-3.8-9.8-8 .2-3.2-2.4-4.8-4.2-7-1.8-3.2-6-1.4-9-2.2-3.2-3.2 2.8-5.8 3.2-8.8l.8-1.4c-3.4-3.2-4.2-8-4.4-12.4-2.4-3.2-3.8-7.4-2.8-11.8 1.8-4-.2-9.2 1.2-13.4-1-2-3-4-2.8-6.8-3.4-4-6.2-8.2-5.8-13.8-2-3.8-4.8-7.4-4-12.4 1-2 1.4-4.2 3-6-1.2-4.4-1.8-10.4 2-14l1.2-.8c.2-4.8 2.2-8.8 6-11.8l1.8-4.8 4.4-4.2c1.4-3.8 5.4-5.4 9.4-6 2-2.8 5-3.8 8.2-3.8l3.8.2 5.8-.6c1-1.4 2.8-3 2.2-4.4-5.8-.8-11.2 0-16.8.2 1-5.2 5-9.8 9-14.2 15.4-13.8 33-24.4 53.6-26.8 8-.6 16.4-1 24.2 1l.2.2c-4.2 5-8.4 10.4-12.2 15.8-10.2 15.4-18.8 31.6-20.4 50.6-5.4-4.8-10.2-10-16.2-13.8-.6 0-1 .4-1 1 2.2 1.8 4.8 4.4 4.8 7.8 2.4 2.2 4.8 5 4.8 8.4-.2 2.8-1 5-2.4 7 1 3 .6 6.4-.8 9l-3.4 4.4c-.6 4.2-4 8-7.8 10.2 2.8 7.2 8.8 16.2 17.4 16.8h2c-.6-2-2.4-3.4-3-5.4-.8-2.8-.6-5.4.4-8-1-5-1-11.2 3.4-14.2.6-3.8.8-7.2 3.4-9.8 3.4-2.4 2.4-7.8 7-9.2 1.8-1.4 6 1 6.4-2.2 1-20.2 7-39 18.2-55 1.4-.2 1.4-2.8 2.8-3.8 10.8-14 25-25 40-31.6.2-1.4-.6-3.2-1.2-5-2.2-.4-4.8-1-5.8-3.4-1.8-7.2 5-12.2 9-17.4 3.4-3.8 7.8-6.8 11.4-10.2-.2-2.8.2-5.2.8-7.8-1.4-1.2-4-1.8-5.4-3.8-2.2.6-5.2 1-7-.4-2-3-6-.2-8.2-2.8-1.4-1.4-3.4 0-5.2-.2-1.8-.6-3.4-1-5.2-2.2-4.2 1.4-9 .2-12.4-2.4-3.8 1-7-.8-10-2.4-4.4 1.4-9.2 4.8-14.4 2.4-3.8-1.2-7.8 0-11.2 1-8.2 2.2-16.2 5-25.4 5.2-3.4.2-6.2-2.2-9-3.8-2.8.2-6 1.2-8.8-.2l-3.4-2.8c-5.2 1-10-.8-13.4-4.8-2.8-3.4-7.4-3.4-10.8-6.8-.6-1 .2-1.8 1.2-2 8.4-1.2 16.8-4 24.8-6.4.8-.8-.2-1.2-.6-1.8l1.2-.8c9-2 17.8-5.2 26-9 0-.2-.8-.8-.2-1.2 7.4-2.8 14.4-6.4 21.4-10.2l.8-.8c-.2-.6-1.2-.8-.6-1.2 14.4-6.4 28.6-13.8 43.4-20 8-2.4 19.2-6.8 26.4.6 2.8 3.4 4 8.4 2.2 13-1.8 2.4-3.2 5.8-1.2 8.4.8 2.8 3.8 4.2 6.2 4.2.8.2 1.2-.4 1-1-1.8-9.8.8-19.2 4.4-27.4 0-1-1-.8-1.4-.8-2.8.4-2.8 5.4-6 3.8-1-.8-.8-2-1-3.2-5.2-3.8-11.2-6-17.2-8-7.4-4-12-12-11.2-20.4.8-6 6.2-11.8 11.8-14.8 12.8-6 27.8-.8 41 .4 15.2 1.8 30-1.2 43.6-4 5.2-.6 11 .2 13.8 5.2.8 1.8 2.8.8 4 .6 3.4-1.4 3-6 4.2-9 2 2.2 2.4 4.8 3.4 6.8"/><path d="M254.1 10.3c3 5-.4 10.4-2.8 14.8-2.2 1-4.8-.4-7.2-.2-8 1-15 4.2-23.4 4.2-12 1-22.8-1-34-2.4-7-1.4-17.8-3.4-22.8 3.2-1 2-1 5 .2 7 .6 1.8 3.4 2.8 3.2 4.4l-5.4 2.4c-6.4-2.4-12.4-9-12.8-16.4.2-5.4 3.2-10.2 7.4-13.4 13-9.2 30.6-2.4 45.4-1.2 11.2.6 22.2 0 32.6-2.4 6.2-1.8 14.2-3.8 19.6 0m13.8 4 3.8-2.8c.2 2.8-1.2 5.4-2 8.2-1.4 3.4-3.8 7.4-7.8 9-3 1-6-.2-8.4-1.4l-.2-.4c2.2-3.8 3.4-8 5-12.2 3.2.2 6.8-1.4 8.2-4.4 1 .8.4 3 1.4 4"/><path d="M184.1 16.3c0 .8-.8 1-1.2 1-1 0-.8-1-.6-1.4.6-.6 1.8-.4 1.8.4m30.2 30.4c5.8 9.4 4.8 22 10.4 31.4-1 .4-2.2-.8-3.4-1.4l-2.4-3.8c-1.2 1.2-1 3.8-2.8 5-3.2-2.4 1-5.4 1.4-8.2l.4-4-3-4.4.8-6.8c0-.8-1.2-1-1.8-.6-1.4 1.2-2.2-2.2-4-1.4-.6 1.2-1 3-2.4 3.8l-3-2.8c-1.2.4-.6 2.2-1.2 3-1.4.8-2.2 3.8-4 2.8l-1.4-2.2c1.2-1.2 2-3.2 1-5-2-4-8.4-1.2-9.2-6.4-1-1.2-2.2 0-3.8-.2 0 2.2 3.2 3.8 5 5.2 2 1.2 6.2.6 6 3.8-2 1.8-3-2.2-5-2-4 .4-6.8-3.4-10.4-1.4l-2.8 2.4c-.8-3 0-6.4 2.2-8.8 3.4-2 8.2-1.8 12-1.2 1.8 1.8 1.4 5 4.4 5.2 1.8.2 3-1.4 4.8-1.8 1 .6 2.2.2 3.2-.2l.2-.2c-2.8-2.2-7.2-2-10.2-4.4 5-1.4 10.2 0 14.4 2zm-37.2-.8-1 3.8c-3.2-1.4-6.4-3.2-9.4-5 1.8-1.8 4.4-3 7.2-2z"/><path d="M275.7 58.9c.2 1.2-1.4 1.4-2.4 1.8-3 1-6-.2-8.4-2-1.2.8-2.2 3-4.2 2.4-2.2.2-4-2-6-2.2-1.4 1.8 1.4 4.2-1.4 5.2-.8.2-2 .2-2 1.2 1 1.4 1 3-.2 4.4l1 3.2c-1.2 1.2-2 3-2.4 5-.8 1-2.8.2-3.2 1.4.2 1.2.2 3-1.2 3.2-2.8-.8-2 2.4-3.8 3-1.8-2-3 .4-4.2 1.2-.8.8-1.4-.6-2.2-.8-1.2.8-2.4 3.4-4.2 1.2-1.8-2-1.8 1.4-3 1.4l-3.8-1.4c-1.4 1-3.2 4.2-5.4 3l-3.2-1.4c-1 1.2-1.8 3.4-3.4 4.2l-4-3.8c-1.4 2-3.8 3.2-6 4.2-1.8-.8-3-2.4-4-4.2-2.2.8-2.8 3.8-5 4.8-2-1-2.8-3.2-3.4-5.2-1-.2-1.8 1-3 .6-1.4-.2-2.8-1.4-3.8-2.4-1.4.2-3.2 2.2-4.8.2-.2-2.2-2.2-1.4-3.8-1.2-1.2-.8-2-2.2-3.8-2.2-.8-.8-.8-1.8-1-3-.8-.8-2.8-.2-2.8-2 1-1.2.2-3-1-3.4-.8-1.4 1.2-2 .8-3.2-.8-1.2-3.4-1.2-2.4-3.2 2-1.2.8-3 0-4.4 0-1.4 2.2-2.4 1.2-4.2l-4.8.2-4.4-1.4c-3.8 1.8-9.8 3.2-13 0 6.2-3.4 13.8-5.4 21.4-5.2 2.8.6 5.2 1.8 7 4 1.8 2.8 2.8 6.2 1.8 9.8l-2.8 5q0 4.8 3 8.4c3.2 3 8.2 3 12 1.4 1-.4 2.2-1.4 3 0 1.2-.2 2.2-1.4 3.4-1.2 1 1 .2 3.4 2 4l4-2.4c1 .8 1.2 2 2.2 2.4l2.8-2.2 2 1.8 3.2-3 2.8 3.2c1.8-1.2 2-3.8 3.8-5l1.4 1.4 4-3.8c5.2 3.8 12 6 18.2 4 2-.8 4.2-2.4 4.8-4.4 1.4-4.8-2.2-9 0-13.4 2-6 7.2-10.2 13.4-10.8 7.2-.6 13 2.8 19.2 5.8"/><path d="M188.5 54.9c-2.8 7.2-4.2 16.2-2 24-1.2 1-2.8 1.8-4.2 1.8-2.4-9.2.2-19.2 4.4-27 .8 0 1.8.2 1.8 1.2m25 3c-.2 2.4-1.2 5.2-3 7-1.2-2-2.2-5-.8-7.4.8-2.4 3-1 3.8.4m-14.2 4c.8 2 .2 4.4-1.8 5.4-3.2-1.8-2-5.4-3.2-8.2l-.8-2.2c2.6.8 3.8 3.6 5.8 5"/><path d="M193.1 65.1c-.8 4.2-1.2 8.8-4.4 11.8-2-6-.8-13.8 1.8-19.2 2.4 1.2 2.6 4.4 2.6 7.4m13.6-4.6c0 2.2-1.4 4.4-3.4 5.4-1.4-.8-2-2.8-1.8-4.2l3.4-3.8c1.6 0 1.6 1.6 1.8 2.6m-64 1.6c-5 3.4-10.8 5.2-16.2 7.8.6 1 2 .8 3 .8 5.2-1.8 10.2-4 15-6l.4 2.4c-9.4 6-20 9.8-32.2 9.8-2-.2-4.2-.2-5.8-1.2 10.2-5.8 21.2-10.4 32-15.4 1.4.2 2.8 1.2 3.8 1.8m141.6 1c6.2 4 13 6.8 19.2 10.8-10.2 3.2-21.4-.2-29-7l.6-2.8c3.8 1.4 7.2 5 11.4 5-2.8-3.2-7-4-10-7.2l1.4-1.4zm-123.2-.4c.2 1.2.6 3 1 4.2-.8 1.4-1.2 3.8.2 5.2.2 0 .8.4.6 1-2.4.4-6.2.2-8-2-.2-1.4.8-3 .2-4.2-2.4.2-5.8 1.2-8.2-.2-.4-1.2-.2-2.2.2-3.4 2.8-1 5.8-.8 8.2-2zm111.6.4c.4.4.4 2 0 2.4-3.2 1.8-7.2.4-10-1.4l-.6-.6c.6-1 1.8-1.2 2.4-2 3 .6 5.2 2 8.2 1.6m-9.6 4.6c-2.2 2-6 2.4-8.8 1.4-.8-.8-.4-1.8-.8-2.8 1.4-1 2.2-2.4 3-3.8 2.6 1 4.6 3.2 6.6 5.2m-47-1.2c-.2 2-.8 4.2-2.4 5.4-1-1-1.8-2.2-1.4-3.8-.2-1.4 1-2.4 1.8-3.8 1 .2 1.4 1.4 2 2.2m-6.4 1.6c.2 2-.6 3.4-1.2 5-1.4.2-2.8-1.4-3.8-2.4-1-2.4 1.4-3.8 2.4-5.4 1.6.4 2 1.8 2.6 2.8m-7 1.4c-.2 1.4-.2 3.4-1.8 4-1-.8-2.4-1.8-2.2-3.2.2-1 1.2-1.8 2-2.4 1-.2 1.8.8 2 1.6m66.2-.8c.2 5-6 3.4-7.8 7.4l-4.4 1.2c.2 2.4-2.4 3-4.2 3.8 0 2 0 4.8-2.2 5.4-4-.8-2 5-6 5-2 .6-3.8-2.4-5.4-.2-.8 2-2 4.4-4.2 5.2-2 .2-4-.2-5.4-1.2.4-1.8-1.2-4 .8-5.2 1.4-.2 1.4 1.4 1.4 2.4 0 .6.2 1.4 1 1.4 2.2-.8.2-4.2 2.4-5 1 .6 2.2.2 3.2 0 1.2-2.8 5-.2 5.8-3.4 2.2-1 4.2-2.4 5-5 2.4-.6 2.8-3.2 3.8-4.8 1.4-1 .4-3.8 2-4.2 4.2.6 8.4-.2 11.4-3.2zm-72.2 3.4c-1 2.2-3.2 5-5.4 5.4 1.8-2.8 2.2-6.2 3.8-9 1.2 1 1.4 2.4 1.6 3.6"/><path d="M293.9 77.1v.4c-7.8 3.2-18.2 1-25.8-2.4-.6-1.2 1.2-1.4 1.8-2.2 3.4 1.8 7.2 3.4 11.2 3.4-2.8-2.4-7-3-9.8-5.8-.2-.8 0-1.8 1-2 6.6 4.4 13.4 8.4 21.6 8.6m-144.6-7.4c-3.2 2.8-7.2 4-10.8 6.4v.2c5.4.4 9.2-3.4 13.8-5.4 1 .2.8 1.4 1.2 2l-.2.8c-8.8 5.8-21 10.2-31.4 5.2v-.4c8.8-2 17.2-5 24.8-9.4 1-.2 2.2-.2 2.6.6m63.2 5c0 2.4-1 5-2.4 6.4-1-1.2-1.8-3.4-1-5l2.2-3c.4.4 1.2 1 1.2 1.6m-6 2.4c-.2 1.4-1 2.8-2.2 3.8-1.4-1-1.4-3-1.8-4.8.4-1 1-2 1.8-2.4 1.2.4 2.8 1.8 2.2 3.4m-6.2-1.2c-.6 2 2 3.8 0 5.4h-1c-.8-2-2.8-4.4-1.4-6.4.8-.8 1.8.2 2.4 1m-37.4.2c-.8 1.4-3 1.4-4.8 1.8-1-.2-2.8-.6-2.8-1.8-.2-.8.2-1.2 1-1.4 2 1 4.8.2 6.6 1.4m125.2 5.6c-8.4 3-19.4 2-27-2.4 1.2-.8 1.8-2.8 3.2-3.4 7.2 3.8 16 5.2 23.8 5.8m40.4 5.4c.2 1-1 1-1.8 1.2-11.2 1-21-3.4-30-9-.2-.8 1.2-1.2 1.8-1.4 5.2 2.4 10.2 6.4 16.2 6.2-3.8-3.2-9-4-12.8-7 .4-1 2-.6 3-1 8 3.6 15.6 7.2 23.6 11m-170.8-7.2c.8 1-.6 1.2-1 1.8-4.2 1-9.4 2.8-13.4 0l.8-.8c3.2-.8 6-3 9-4.2.8 1.6 2.8 2.6 4.6 3.2m-51.4-1.2c-1.8 1.4-4.4 2-5.2 4.2 3.4.4 6-2.2 9-4l5 .2c-3.8 3-8.8 5-13 7.2-5.2 1.8-11.4 3.8-16.8 1.8l1.2-1c6.2-3 12.2-6 18.4-9.4.6 0 1.8.2 1.4 1m90 1.2c-.2 1-1.2 1.8-2.2 1.8-.8-1-.6-3 1-3 .6-.4 1 .6 1.2 1.2m-31.2 1.2 1.4 1.2c-1 .8-3 .6-4.2 0-1-.4-1.8-1.2-2-2.2.8-1 2.2-1.4 3.4-1.2zm-43.6.6c-3.2 3-7.8 4-11.4 7l.2.6c5.2-.8 10-3.4 14.4-6.4 1 0 2.2.2 2.8.8-6.4 4.4-13.8 8-21.8 9.4-3.8.2-7.8.6-10.4-2 8.2-2.4 16-6.2 23.2-11 1.2 0 2.4.6 3 1.6m144.2 1.6c-.8 2-2.8 1.8-4.4 2-2.2-.2-4-1.2-5.8-2.2.6-1.2 2-1.8 3-2.8z"/><path d="M321.3 90.9c-1.2 3-4.8 3.2-8 3.2-9.8 0-17.8-3.8-25.4-8.2l-1-1c4.4-3.8 8 3.2 12.8 3.8 2 .8 4 1.2 6 1.4v-.8c-4.2-2.4-9.2-3.8-13-7.2.2-.6 1-1.2 1.8-1.4 8.4 4.6 16.8 9.4 26.8 10.2m-183-8.2c-1.2 2.2-4 3-6 4.4-1 .4-3 .8-3.2 2.2 5.2.8 8.8-3.4 12.8-5.8l3.8 1.4c-6 4.8-13 7.4-20.4 9-3 .2-5.8-.2-7.8-2l.6-.8c5-2.2 10-5 14.4-8.2 2.2.4 4-.2 5.8-.2m25.6 2.4c-.8 1.2-2.4 1.8-4 2-2.8.4-5.4-.2-7.2-2 2.4-.8 5.2-3 8-1.4zm117.8 7.6c.2-.2.8-.2 1-.2-.6 1.2 1.4 1.8 2.4 2.4-5 3-12.2 1.4-17-1.4-2.2-1.2-4.2-3-6-5 .6-1.2 2.4-1.2 4-1.2 2.8 2.2 6.2 4 9.8 5v-.8l-8-6c.8-2 3.2-.2 4.8 0 3 2.4 5.6 5.2 9 7.2m21.2 2.4.2.2c-6.8 2.4-13.4-1-19-3.8-2.8-1.4-5.2-3.2-7.4-5.4v-.4c2.8.2 5.8-1.2 8 .4 5.6 3.8 11.6 7.2 18.2 9m-131.8-8c-.4 1.4-2.2 2-3.4 2.4-1.4.4-4 .4-4.8-.8l5-3.4c1.2.4 2.4.6 3.2 1.8m88.4.6c.2 1.2-1.2 2.2-2.2 2.8-1.8.2-3-.6-4.2-1.4-1-1.2 1-2 1.2-3 1.6-.8 3.4.8 5.2 1.6m-108.8-.6c-1.8 2.4-5 3.8-7.4 5.4.4 1.2 3 .6 4.2 0l5.4-4c1.4.2 3 .8 4.2 1.2-7 6-17.2 10.4-26.4 6.2l-.2-.4c3.8-1.8 8-3.2 11.8-5.2l6.8-4.4c.6.2 1.2.4 1.6 1.2m25.4 2c0 1.4-1.4 2.4-2.4 2.8-1.2.2-2.4.2-3.4-.4 1-1 2.4-3 4.2-3.2.6-.4 1.4.4 1.6.8m77 2.8c0 1.4-1.2 2.8-2.8 3.2-1.2 0-2.8-.8-3-2 1-1 1-4.2 3.2-3.4zm-71.2-1.2c-1.2 1.8-3 4-5.4 3.2-.6-1.2 1.4-2.2 2-3.4 1 .2 3.6-1.8 3.4.2m175.6 9.4c-5.8 3-14 1.8-20.4.8-5.2-1.2-10.4-3.4-15-6.4.2-1 1-2 2-2.2 6 3.4 12.4 5.4 19.4 6.4v-.2c-5-3.4-11.8-3.8-16.8-7.4 1.4-1.2 4-1.2 5.8 0 8 3.8 17 5.8 25 9m-130.8-7.4c.2 2.8-1.2 5-2.8 7-1.4-.4-3-2-3.2-3.4v-3.2c1.4-1.2 3.2-4 5.2-1.8zM86.3 91.1c-2.4 2.2-6.8 1.8-9.2 4.4 1.4 1.2 3.4-.2 5.2-.2l10-3.2c.2.2 1.2.4 1 1.2-9.4 5.2-21.4 8-32.6 5.2l22.2-8.2c1 0 2.4.6 3.4.8m80 1.2c-2.4 3.8-6.8 6.4-11 8-3.2.8-7 .6-10-1 4.2-2.2 9.2-3.8 13-7.2 2.4-3.8 5 1 8 .2m106.4 5.8c-1 1.2-3.2 1.2-5.2 1.4-4.4-.2-8.2-3.4-11.4-6.4.6-1 2-.2 3-1 1.4-1.8 3.2-1 4.4.4 2.6 2.4 6 4.4 9.2 5.6m-82.4-2c-.6 1-.8 3-2.4 2.2-2-1.2-3.8-3.8-3.4-6.2 1-.8 2.2-.6 3.2-.6zm28.2-1.4c1 2.4-1.2 4.8-3 6-1.4-1.2-4.4-2.2-3.8-4.8 2.2-.8 2.8-4.4 5.2-3.4zm-9.2 1c0 2.8-1.8 4.8-4 6.2-2-.2-3.2-2.2-4.2-3.8.6-3 4-3.4 6.2-5.2 1.2.2 1.8 1.8 2 2.8m-93.8-1.6c-2.2 2.8-5.8 4-8 6.4 4.2 1.4 7-3.2 10.4-5 1 0 1.8.2 2.4.8-3.8 4-9 6.4-13.8 9.4-5.2 4.4-13.8 1.2-20 3.8-13.2 2.2-25 8-38.6 8.8-3-.2-5.8-2-7.4-4.2v-.2c13.8-.4 25.8-5.2 38.4-8 5.4-1.8 11.4 1.8 16-2l19-10.8c.8 0 1.2.6 1.6 1m130.8 1.2c-.2 1-1.2 1.8-2.2 1.8-1.8.2-3.8-.6-4.4-2 .2-3.8 3.8-.8 5.8-1zm-47 .4c-.2 2-.4 4.2-2.4 5.2-1.4-.6-2.8-2-3.4-3.2 1-1.8 2.2-4.4 4.2-4.2zm-24.4.2c-4 3.8-8.4 8-14 9-2.4 0-5.2 0-7-1.8 1.2-.8 3.4-.6 4.8-1.8 3.8-2 7.2-4.4 10.2-7.8 1.6 1.4 4.6-.2 6 2.4m8 2.2c-4.4 4.8-10 12-17.4 9.4-.6 0-1-.2-1.2-1 5-3 10-7 15-11l3-1.4c.2 1.2 1.8 2.8.6 4"/><path d="M104.9 95.3c-4 3-8.8 5.4-13.4 7.4-3.2 1.4-6.8-.6-10.2.6-13.8 2.2-26 7.8-40.4 8-3.2 0-6.2-.8-8.4-2.8l1-.6c8.4-2.2 17.2-4.2 25.2-7.2 13.4 2.8 27 0 38-6.4 2.2 1 5.6 1 8.2 1m158.6 5.8c-.2 1.4-2 2.8-3.4 3.2-4-.6-7.4-3.2-10-6.4 1.2-.8 3-1.2 4.2-2.4 3.2 1.4 5.8 3.8 9.2 5.6m66-.4c8.4 3.4 19.4 4.8 28.6 2.2 8.2 2.8 17.2 4.4 26.4 5 0 1.8-2 2.2-3.2 3-8 3.8-18.4 1.2-26.8-.2l-18.4-4.8c-3 0-5.2 1.2-8 1.2-7.8-2.2-14.8-6.2-21.4-10.2.8-1.8 2.8-1 4-.2 6 3.2 12.2 7.2 19.4 6.4-4.8-2-10-3.4-14.4-6.2.2-.8 1.8-1 3-1.2 3.6 1.2 7.2 3.4 10.8 5m-202-3.6c-1.4 2.8-4.8 3.8-6.8 6.2v.2c3.8.2 6.2-3 9.2-5 .8 0 2 .2 2.2 1-6.2 6.2-14 10.2-21.8 13.4-3.8 1.2-6.8-.6-10.4-.6-9 1.4-17 4.8-26 6.4-5.8.8-11.2 3-17.2 2-.6-.2-.8-.4-1-.8l1.2-1c12.2-2.8 23.4-7 36.2-8.4 4.2-.2 8.8 0 12.4-1.8 6.8-3.4 13.2-8 19.4-12.8 1 1 2.2.2 2.6 1.2m197.4 17c5-1.4 10.2-.8 15 .8l20.2 5.2v.6c-8 2.8-16.4-.2-24-2-4.8-1-10-3.8-15.2-2-4.8 1.2-8.4-1-12.2-2.2-10.2-4-19.2-10.2-29-15.2.6-.8 2-.8 3-.6 6.2 3.4 12.8 7.2 19.8 9.2.4 0 1 0 1.2-.2-5.2-4.4-12-5.8-17.4-9.8v-.6c13 5 25 12.8 38.6 16.8m-85.6-15c-.8 1-2 1.4-3.2 1-.2-.6-1-.6-1-1.2 1.2-.8 4.2-2.6 4.2.2m-9.8 1.2c-.2 2-.2 4.2-1.8 5.8-1.8.2-2-1.8-2.4-3 0-2 1.4-4 3-5.2 1.4-.2 1.2 1.4 1.2 2.4"/><path d="M327.3 109.1c4.2 0 9-2.2 13.2 0 10.2 3 20.8 5.4 32 6-.2 1.2-1.4 1.8-2.4 2-3.8 2-8.8.8-12.4 0l-24-6c-3-.4-5.8.6-8.4.8-10.4-3-19.8-8.8-29.4-13.2 2-.2 4.4.2 6.4-.4 8.6 2.8 16 8.2 25 10.8m-75.2-6c.8.8 2.4 1.2 2 2.4-.8 1.8-2.8 1.4-4 .8-2.4-1.4-4.4-4-6.2-6.2.4-1 2-1.2 3-1.8 2 1.4 3 3.4 5.2 4.8m-64.2-.2c-2.4 3-4.2 8-8.8 8.4-2.2.6-4-.4-5.8-1.2l.2-1c4.2-2.4 8.2-6.2 11.8-10 1 1.2 4 1.6 2.6 3.8m35-.6c.2 2.2 0 5.2-2 6.8-2-1.2-4.8-3-4-6 1-1.2 1.8-4.2 3.8-3.2zm-27.8.8c.6 2.2-.2 4-1.8 5.2-1.4.2-2.2-1.4-3-2.8-1-1.8-.2-4.2 1-5.8.8-.8 1.2.2 1.4.4zm81.8-3c12.4 6 24.2 14.8 37.6 18.4 4 1 7.4-.4 11.8-.2l17.8 4.8c-5.2 2.4-12.4 2.2-18 1.4-6-1-12-3.8-18.4-2-2.8 1.2-5-.4-7.2-1.4l-30.2-19c1.2-1 3.2-1.2 4.8-2.4zm-134.8.8c-7.2 9-17 15.4-27.8 18.2-4.2-.8-9.2-2-13.8-.2-9 2.2-17.4 5.8-27.4 6-1.8-.4-3.8-.8-4.8-2 6-1.4 12.4-3 18.4-4.8 5.8-1.4 11.8-4.2 18-2.8 6.8 1.4 12-2.8 17.4-5.4 4.8-2.8 9-6.2 13.2-9.8 2.2.2 4.4-.2 6.8-.2zm72.6 3.8c0 2.4-1.8 4-3.8 5.4-2.4-1-3.8-3.8-4.2-6.2 1-1.4 2.4-2.2 3.4-3.8 2.2.8 4.6 2 4.6 4.6m34.8 3.8c.8 1.4-1.2 2.2-2.4 2.8-3.8-1.2-6.2-5.4-8.2-8.8.2-1 1.4-1.2 2.2-2 2.8 2.6 5.2 5.8 8.4 8m-44.2-3c-.2 2.4-3.2 3.8-5 4.8-2-1.8-3.4-4.2-2.8-6.8l2.2-2.2c2.4.8 4.4 2.4 5.6 4.2m-57.4-2.4c-2.4 3.8-6.2 6.4-9.4 9.4 1.2.6 3-.8 4.4-1.4 2.8-1.4 5-4.8 7.4-6.8.4.2 1.2.4 1.4 1-4.8 5.2-10.2 11-17 13-2.8.8-6 .2-8-1.4 2.4-2.4 6-3.8 8.8-6.4l9-8.4c1.4-.2 2.8 0 3.4 1m88.4-.4c1.8 3.2 4 6.4 7 9 .2.8-.8 1.8-1.4 1.4-4.4-1.8-6-6.8-8-10.8l.2-.4zm30.8.4c6.8 3.8 13.2 7.4 19.4 12.2-.2 1.4-2.8 1.4-4 2-7.8-.4-14-6.8-19.4-12.2 1-1 2.4-3 4-2m-29.2 10.4c.2.8-.8 1.2-1.2 1.4-2.8.6-3-2.8-4-4.2-.2-2.4-2.8-5-1-7.2 2 3.4 3.6 6.8 6.2 10m23-7c5.8 4.2 11 10 17.4 12.8-.8 1.2-2.4 1.2-3.8 1.2-7-2-11.2-8.4-16.4-13.4.6-.6 1.8-.8 2.8-.6m-102.6.6c-1 4.8-4.2 9-8.2 12-3.2 2.2-8.2 3.4-11.8 1.2l-.2-.2c6-3.8 11.2-8.8 16.4-13.4zm68 4.4c.8 3.4-3.2 1.4-4.8 3-.8.2-1.2 1.2-2.2 1.4-.2-.8-.4-2 .2-3 .2-.8 1-.2 1.4-.2l3.8-5c1.6.6 1.2 2.6 1.6 3.8m-61.6.4c-2 4.4-5.4 10.4-11 11.2-1.4 0-2.8 0-3.4-1 4.8-3.4 8.4-9 11.2-14 .8 1.2 4.8 1 3.2 3.8m91.4-3.4c4.8 4.2 9 9.4 14 12.8.4 1-1 1.8-2 2-4.4 1-7.4-4.2-10.4-7l-5-6.8c.8-.6 2.2-1.6 3.4-1m-26.4-.2c0 2.4 4.2 5.8.6 7.2-1 .2-2-.6-2-1.4 1.4-2-1.8-5.2 1.4-5.8m-42.6 3.8-4.4 2c-.2-2.4 3.2-3.8 4.4-5.8.4 1 0 2.6 0 3.8m31.2-2c-.4 2.2-1.8 4.2-3.4 6-1.2-.4-2.4-1.2-3.2-2.4 1.2-2 3-3.4 4.8-5.2.6 0 1.2.8 1.8 1.6m-26.2 1.2c0 1 .8 2.2 0 2.8l-2.8-1.4c-.2-1.2.2-2.2.6-3.2 1 0 2 .8 2.2 1.8m7.6 2-2.4 4c-1.4 0-1.8-2-2.4-3-.8-1.4-.8-4 1.2-5 1.6.8 2.4 2.8 3.6 4m9.6-1.2c-.4 2.2-1.8 4.2-3.8 5.4-2-1-3.2-3.4-3.2-5.4 1.8-.8 3.4-4.2 5.4-2zm-41-1.2c.6 2.8-1.2 5-2.2 7.2.8.8 1.4-.2 2.2-.6 1.4-1.8 1.8-3.8 2.4-5.8.6-.6 1.2 0 1.4.8-1.2 4.8-4 10.4-9.4 12.2-1.4.2-3.2 0-4-1.2 3.8-3.2 7-7.8 8.2-12.4.4-.6 1-.6 1.4-.2m92.4 11.6c.6.2 1.4 1.2.2 1.8-1.4 1.2-4 .8-5.8.2-4.2-2.2-6-7-8.2-10.8 1-.8 2.4-.8 3.8-2 3.8 3.2 6 7.4 10 10.8m-84.8-8.2-2 6.8c1.8 0 2.8-2.4 3.4-4 .8-1 .2-3.2 1.8-3.4 1.2 1 .2 2.8 0 4-1.8 4.2-5.2 9.4-10.2 9.8-1 0-2-.4-2.4-1.2 1-1.4 3-2.4 4-4 2.2-2.8 2.8-6.2 4.4-8.8.6-.4 1.4 0 1 .8m68.8.2c2.4 3.8 4.2 8 8 11.2-.6 1-1.4 1.2-2.4 1.2-3.2.2-4.4-3.4-5.8-5.4l-3.4-5.8c.6-.6 2.4-.8 3.6-1.2m-51.2 4c2.8 3.2 4.2 7.2 4 11.8l-.2.2c-2-2.2-3.2-5-5.2-7-1.4.6-1.4 2.4-3.2 3-1-2.2-1.4-5.2-2.8-7.4l-3 1.2c0-1.8 1.4-4.2 3.4-5 3-.4 5.4 1.2 7 3.2m36.4 1.4c-.2.8-1.4.2-2 .6-.2 2.8-.2 5.8-2.2 7.4l-3.2-3.2-4.8 5.2c0-4.8 1-10.4 5.4-13.4 1.2-.8 3 0 4.2.8 1.2.6 2.2 1.2 2.6 2.6m-17.2-1.8c-.2 2-1.8 4-3.4 5-1.2-.4-2-2-2.4-3.2 1.4-1 3.2-6 5.8-2.4zm-9.2 3.2c-.8 1.2-1.4 3.4-3.4 3.4-1.2-1-2-2.4-2-4 .8-1.4 1.4-3.4 3.2-4.4 1 1.2 4 3 2.2 5m41.4 5.8c-.6 1.2-2.8 1.2-3.8.2-2.8-2.8-4.4-6.4-6-10 1.2.2 2.4-1.2 3.8-.4zm-27.2-8c-.2.6-.2 1.2-1 1.4l-1.2-1.4c0-1.2 2.8-2.2 2.2 0m20.2 8.2c-.2 1-1.2 1.8-2 2.2l-.8-.2c-.6-4-2.8-7.4-3.4-11.4l.2-.2c2.8 2.6 4 6.4 6 9.6m-58-5.2c1 2.8-1 5-1.2 7.4-1.4.2-2.4-.6-3.4-1.4v-1c1.8-1.2 2.8-3.8 4.6-5m35.8 2.8c0 2 0 4.2-2 5.2-1.2-1.2-2.4-3-2.4-4.8.8-1.2 1.4-3.4 3-2.8zm-28.8 4.4c-1 1.2-2 2.8-3.4 3.2-1.8-1.4-2.8-4-1.8-6.2.2-1.4 1.8-2.8 3-3.8 1.6 1.6 1.6 4.4 2.2 6.8m20.8-4.2c-.2 1.8-1.4 3.4-2.8 4.4-1-.6-2.2-1.2-2.8-2.4l3.2-4.2c1.2.2 2.2 1.2 2.4 2.2m25 3.4c.2 2 0 3.8-1 5.2h-.8l-3-4.8 2.2-6c2.2 1.2 2.4 3.4 2.6 5.6"/><path d="M194.7 131.7c-.2 1.8-.8 3.8-2.4 5-2-1.2-2.2-4.2-2.8-6.4.8-1 1.4-3.2 3-2.4zm16.6-.2c-.6 1-1.2 2.8-2.8 2.2-.8-1-2.4-2.4-.8-3.8l1.4-1.8c1.4.8 2 2.2 2.2 3.4m13-1.4c-.2 3-2 5.4-4 7.8-1.2-1-1.4-2.8-1.4-4.2.6-2 3-8.4 5.4-3.6m-22.6 3.6c-.8.6-1.4 0-2-.8-.6-1.2-.2-3 .2-4.4 2.4 1 4.2 3.2 1.8 5.2m28 2.6c-.6 3.2-2 6-3.4 8.8-1.8.6-2-1.8-2.4-3l-.4-3.8 3-6.2c1.2.6 2.4 2.6 3.2 4.2m-39.4 2.4c-.6 1.4-1.4 3-3.2 3.2-1-2.4-3.2-5-2-7.8l2.2-1.8c1.2 2 1.8 4.4 3 6.4m6.8 1.8c-1 .8-1.4-1-2.2-1.4.2-2 1.4-3.8 2.2-5.8 1.2 2 .6 5 0 7.2m-15-5.4c-.8 1.4-1.4 3.4-2.8 4 0-2 0-4 1-5.4 1-.2 1.6.8 1.8 1.4m25 .2c0 1-1 2-1.8 2.4-.8-.2-1.2-.8-1.8-1.8.2-1 .8-1.8 1.2-2.4 1.4 0 1.6 1.2 2.4 1.8m7.2.2c0 1.8 0 3.8-1.8 4.8-1.2-.2-2.2-1.4-2.8-2.8 0-1.4 2-2.2 3-3.4.8-.4 1.4.6 1.6 1.4m19.2 4.2c-1.8-.8-1-2.8 0-3.8h.2c.2 1.2.8 2.8-.2 3.8m-29.2.8c0 1.2-.8 2-1.4 2.8-1.2.4-2.2-1-3.2-1.8 0-1.2 0-3.2 1-4.2 1.4.4 2.6 2 3.6 3.2m13.4-1.8-1 2c-1-.6-.2-2-.2-3 .8-.6 1.2.6 1.2 1m-32.4 5.6c-1.2 2-2.8 4.2-4.8 5.2-1.4-1.2-.4-3.8-.4-5.2.4-2 1.2-4 2.8-5.2 1.4 1.2 2 3.4 2.4 5.2m25.2-2c-.2 1-.8 2-1.8 2.4-1.4-1-2-2.8-2.2-4.2 1.8-3 3 1 4 1.8m-14.2 4.8c-.2 1.2-1.2 2.8-2.2 3.8-1-1.8-2.4-3.4-4-5.2v-2l2.2-3.2c2.2 1.2 4 3.8 4 6.6m36.4 1.6-.2.6c-1.4-1.2-2.8-2.8-3.2-4.4l1.8-3.4c1.6 1.6 2.2 4.8 1.6 7.2m-10.8-4.2c-.4 1.4-1.4 3-2.8 4-1-1-1-2.4-1-3.8l-.4-.2c.4-.8 1.2-3.4 3.4-3.2zm27.2 9.6c3.4 3.4 6.4 8 5 13-.8 1.4-2.2 2.8-3.8 3-2.8.4-5-1.2-6.8-3-3.8-3.8-7.2-8-10-12 0-1.4.4-2.8 1.2-3.8l.8.2c4.4 3.4 8 10 13.2 11.4l-.2-1.2-13.4-14.2c-.6-2 .2-4.2 1-5.8 4.8 3.4 9.4 7.8 13 12.4m-34.6-10.6c1 2.4 2.2 5 3.2 7.4 0 .6-.2.8-.8.8-2-2.2-3-5-4-7.8l.8-1zm-37 4.8c-5.2 5-11.4 9.8-14.2 16.2 0 .4.8.2 1 .2 4.2-4.8 8.8-9.8 13.8-13.4 1.4 1.2 1 3.4 1.2 5.4-5.2 5.2-10.8 13.4-19 12-2.2-.8-2-3.8-1.4-5.8 4.2-7.4 11.4-15 19-19.4zm23.8-2.2c-1.4 8.2-6 15.4-10.8 22.2-.4.4-1.2.8-1.8.2-1.2-1.2-.2-3.4.2-4.8 4-1.8 6-5.8 5.8-10 1.8-3 5-5.4 3.4-9.2v-.8c1.2.4 2.4 1.4 3.2 2.4m4.4-.8-.2.2-.4-.8c.4 0 .6.4.6.6m-17.8.2c.4 4-.4 8.2-3.4 11-1.4 0-1.2-2.4-1.4-4-.2-2.8 3.4-4.4 4.4-7zm106.8 4.2-11.2 6.8c-1 .2-2 0-2.4-.8 4.4-3 8.8-6.4 13.8-8.4v2.4zm-90.2-.6c-.8 6.4-2.4 12.4-5 18.4-1.4 1-4 .8-5.8.6l.4-1.2c3.8-6 7-12.2 9-18.8 1-.8 1.4.2 1.4 1m24.2 3c-.2.8-.6 1.4-1 2.2-1.8-1.2-2-3.4-2.4-5.2 1-.8 2.2.2 2.8-1 1.4.4.8 2.6.6 4m-13.4 15.6c-1.8.6-4.2.2-6-.2 0-6 1-12.8.2-19.2l.2-.2c2.4 6.4 3.8 13.2 5.6 19.6m9.6-12.6c-.8 2-1.8 4-3.2 5.8-2-1-3-3.8-3-6.2.8-2.2 2-4.2 3.4-5.8h.4zm77.8-2c-.4.8-2.2.4-3.2.2-1.2-1.2-4-2.4-2.2-4.4 2 .4 3.8 2.6 5.4 4.2"/><path d="M192.5 154.5c.2 2.4-.8 5-3 6l-.4-.2c-.2-3.4-.6-7.4 1.2-10.4 1.6.8 1.8 3.2 2.2 4.6m14 13c-1.2.6-3 .2-4.4 0 2-5.4 3.4-11.8 5-17.4 1.2 5.2.4 11.8-.6 17.4m153-15.2c2 2 2.4 5 2 7.8l-2.4 6c-1 .8-2-.4-3-.8l-.4-.8c1-3 2.4-7.8-.6-10 0 2.2 0 5-1 6.8-2.2-1.2-.4-5-1.4-7l-1.2-3.2c2.2-1.8 6-.8 8 1.2m-9.8.8c.4 1.4 1.2 2.8 1 4.4-4 1-2.2-4.8-6.2-4.4-.6 1.2 1.4 2.4.6 3.4-1.8.6-2.8-.8-3.2-2.2.2-1.8 1.8-3.2 3.2-3.8 2.2-.4 3.6 1 4.6 2.6m-131.4 6.8c2 2 3.2 5 3.8 7.8-.8 1-2.4.6-3.4.8l-.8-.8c-1.4-5.4-3.8-11-4.2-16.8 2 2.8 3.4 5.8 4.6 9"/><path d="M392.5 169.9c4.2 11.4 1.2 25.2-8 33.4-7 6.4-16.4 9-26 6.8-3.8-1-7.2-2-10.2-4.4 3.8-1.8 8.2-1.2 11.2-4.8 1.8-1.8 3.8.2 5.8-.2 5.8-.6 11.4-2.8 15-7.8 3.8-5 5-12.2 2.8-18.2-1.2-4.4-5.4-8.4-9.4-10.8-1-3.2-3.2-6.2-6.2-7.8-2-1-5.2-1.2-5-4.2 12.4-1.6 24.8 6.6 30 18m-160.8-16.6-1.2 4.4c-.4.6-1.2-.2-1.2-1l1.8-4.4c.6-.2.8.8.6 1m65.2 1-.2.8-10.8 5.8c-.8-.2-.8-1.2-1-1.8 3-2.4 6.2-4.4 9.8-6.4 1 0 1.4 1 2.2 1.6m44.2 3c.8 4.2-.8 8-1.2 12.2-.6.4-1.4 0-1.8-.8-.2-3 .2-5.8 0-8.8l-.6-.2c-1.4 1.4-1.4 3.8-2 5.8-1.4-.8-1.4-3-2-4.8.2-2.2.8-4.4 3-5.8 1.8-1.2 3.8.6 4.6 2.4m-34.6-.2-6 1c-4.8 2.4-9.4 5.2-13.4 9-1.4 1.8-2.4 4-4.2 5.4-1.8-1.2-.8-3.2 0-4.4.8-3.4 4.2-5.8 7.2-7 5.2-2.4 10.6-8 16.4-4"/><path d="M369.9 160.9c2.8 5.8-1 11.2-4.4 15.2-1.8.2-1.4-1.8-1.8-2.8.6-2.8 3.8-5 2-8.2-1.2 1.2-1.4 3.4-3 4.8-1-.2-1.8-1.2-2-2 1.2-3.4 2.4-7 3.2-10.4 2.6 0 4.6 2 6 3.4m-141.6.6c-.8.8-1.4.4-2 0-1.4-1-.8-2.4 0-3.4 1.2-.6 1.4 1.2 2.4 2zm-41.8-.2-2.4 2.4c-.8-.8-1-2-.8-3.2l3-2.4c1 .6.8 2.4.2 3.2m59 10.2c.2.6 0 1-.4 1-3.8-1.8-8.8-2-10.2-6.2-.8-2.4-2-5.2-1.4-7.8 3.8 4 7 9.2 12 13m38.2-9.6c-.2.6-.2 1.2-1 1.4-1.2-1.2-1.8-3-2.2-4.8 1.8-1 2.4 2.2 3.2 3.4m67-1.2c5.8 5.4-3 9.4-2.4 15.2-.8.6-1.4 0-2.2-.2-1.4-2 .4-4 .8-5.8.8-2 1.8-4.4.2-6.2-1.2 3-2.4 6.2-3.8 9.4-1.2-1-1.4-3.2-1.2-4.8l1.2-9.4c2.8-.8 5.4.2 7.4 1.8m-47.6.6c-4.2 2.8-9 4.8-13.4 7.2-.2 0-.8-.4-.2-.8 3.8-3.2 8-5.2 12.2-7.8.6-.2 1.2.8 1.4 1.4m-125.2 1c-.2 2-2.2 3.4-2.2 5.2 2.4-.4 3.4-3 5.2-4.8 1 .4 1 2.2.2 3-2.8 5.4-10.4 2.4-13.2 7.8-.2.6-1 1-1.4 1-1-.8-1.2-2-1.2-3.2 4.4-2 9-5.2 12.4-9z"/><path d="M231.3 162.7c1 3 1.8 6.2 4.8 8.2 1.8 1.2 3.8 2 5.4 2.4.6 1-.6 2-1.2 2.8-1.4 1-2.8-.8-4-1.8-1.2-1.2-2.2-3-3.8-3.4-2 1.4 2.2 5.2-1.4 5.8l-3-.2c-.4-1.2.8-3.2-.2-4.4-3 .8-5.2 3.8-9 2.4-1-.8-.2-2.2.2-3 3-2 9.2.2 9.8-5 0-1.4.8-3 1.8-4z"/><path d="M226.7 164.9c-.2 1.2-.2 2.4-1.4 3-1.8-.6-1.4-3-2-4.4 1-2.6 2.4.8 3.4 1.4m86.2-.4c-1 1-3.4 0-4.8 1l-17.4 10.4c-1.2 1.4-1.2 3.8-2 5.8-1 0-1.2-1.4-2-2.2.6-3.2 2-5.8 3.4-8.2 6.2-3.4 12-8.4 19.4-8.2 1 .2 3 .2 3.4 1.4m-126 4.4c1.2 2.8 4 3.8 7 4 .8.8-.2 1.4-.6 2l-.8.2-6.2-3c-1.2 1.2.2 3.4-1 4.8-1.4-.6-2.8-1.4-4.4-1-.8-1.4 2.8-3.8.2-5.2-1.8 1.2-1.8 3.8-3.8 4.8-2 .8-3.8 2.2-6 1.4-.6-1.2-3-3.4 0-4.2 3.4-.4 7.2-1.4 10-4 1-1.8 3.2-2.4 4.8-2.4zm174.6 3.6c1.2 3.2.2 7-2 9-1.2.8-2.2-.8-2.8-1.2-.2-3 2.8-6 .4-8.8l-.4.6-2.2 7.2c-1.2-.2-3.8.2-4.2-1.8 0-4 2.2-7.2 4.4-10.2 2.8.4 5.6 2.4 6.8 5.2m-49.4-5c6.8 7.2 11.8 15.2 17.4 23l.2 3c-6.8-8.2-12.8-17.2-19.8-25.4.2-1.2 1.4-.8 2.2-.6m64.8 5.4c.8 4.8-2 8.8-5.8 11.4-.8-.6-.8-1.8-1-2.8 1.8-2 3.8-4.2 3-7-1.2 1.4-2.2 3.4-4.2 4.4-.4-.4-1.8-1-1-2.2 2.4-2.8 3.2-6 5-9 2.6.8 3.4 3.2 4 5.2"/><path d="M309.1 169.9c13.8 16.8 25.4 34.4 37 52.4.4 1.2 2.4 2.8 1.2 4-2.8-1.2-6.4-1.8-9.2-.2l-3.8 2.4c-2.8-1.2-6.2-2.2-9.2-1.8-11.2-16.2-22-32.6-31.4-49.6l.4-.8 13-7.8zm-102.4 2.6-5 4c-1.2-.2-1.2-2.2-2-3.2 1.4-2.4 4.8-1.4 7-1.4zm136.6 4c.8.8 2 .8 2.2 2-1 1.8-3.2 1.4-4.8 3l-4.4 4.8c-1-2-1-5-.8-7.4 0-2.2.2-5 1.4-7 3.8-1 3.6 3.4 6.4 4.6m38.2 4.2c-1-1-1.8-2.4-2.4-3.8.6-1.4-.2-3.8.2-5 2 2.6 2.6 5.8 2.2 8.8m-170.4-4.8-9 7.2-4-.2c.8-1.2 2.2-3 3.8-1.8.8-.4 0-1.4.6-2.2l8.4-6.8c.8.8.4 2.6.2 3.8m4.6-1c-.4.8-1.2 1.2-2 1.4-.2-1.2.4-2.8 1.4-3.4 1 .4 1 1.6.6 2m-16.6 1.8-.2.4c-1 0-2.2-.4-3.2-1-.2-.8.2-1.4.8-1.8 1 .2 2 1.2 2.6 2.4m46.4 1.2c0 .2-.2.8-.4.4-1-.2-2.8-1-2-2.2 1.2-1.8 2.2.8 2.4 1.8m-55.2-.6c-.8 1.2-2.2 2.8-3.8 3 .8-1.2.8-3.2 2-4.2.6.2 1.8.2 1.8 1.2m36 1.4-5.4 4.8c-1.8-.2-3.8.2-5-.4 2.8-2.4 5.8-5.4 9-7 .8.4.6 1.8 1.4 2.6m-57.4-1.4c-.2 1-1.4 1.2-2.2 1.8-.8-.4-.2-1.4 0-2.2.4-.6 1.8-.6 2.2.4m49.8.2-7.2 6-5-.4 4.2-3.8c1.2-.2.8 2.2 2.2 1.2l4.2-3.4c.6-.2 1.4-.2 1.6.4m17.6.4c-.6.8-1.4 1.8-2.4 2l1-3c.6 0 1 .4 1.4 1m-57 5c.4.8 1.2 3 2.4 1.4 1.4-1.2 3.4-3.4 5-.8 5 3.2-.4 8.4 1.8 12.8 1.8 3 5.4 3 8.2 4.4 1.4 1.8 3.8 3 6 3s4.2-1.4 5.2-3.4c2-3.2-1.4-6-2.8-8.4 1.8-1.4 4.8-.6 7-.2 4.8 3.4 9.8 6.4 14.4 10.2l-.2.4c-4 .6-8.4 0-11 4-2 1.4-2.4 4.4-1.8 7-2.8 2.4-4.2 5.8-5.4 9-2.8 2.2-4.4 5-5.4 8.2-1 4 3.8 5.8 4.8 8.8-1 1.2-2-.2-2.8-1-1.8-1.8-4-3.8-6.4-3.4-2.4-.2-3.8 2-6 1.4-2.8 0-5.8.2-7.4 2.4-1.2 2.8-4 5.2-2.8 8.8 2.2 3.2 5.8 6 9.8 5 1.2-.8 3-2.2 4.4-1.2 1 2.2 2 4.8 4.4 5.4 2 .4 4 .4 5.2 2.2.8 1.8 1.8 3.8 3.2 5.2-1.4.8-3.2-1-4.8-1.4-3-1.4-4.2-6-8.2-6-3-1-5.8.4-9 0-7.2-2-15.4-2.8-19.4-10-.8-2.4-3-5-5.4-5.8-2-3.4-4.2-9-9-9.2-1.2.2-1.4 1.8-1 2.4.2 2 2.2 3.4 3.2 5.2-.2.8-1.4.2-2-.2l-6.8-8-1.4-12c1.4-6 5.2-11.2 5.2-18 0-2.4-2.2-4.2-4.2-5.8l-3.8-1c2.4-3.4 6.8-5.4 10.2-8 3.2-2.2 6.8-4 10.4-5.2.8.6.6 1.4.8 2h.8l4.4-3.4c3.2 0 5.8-.8 8.4-2 1 1.8.8 3.8 1.8 5.2"/><path d="M183.5 179.3c-.2 1-1.4 2-2.2 2.4-1-.6-1-1.8-.8-2.8.6-1.4 2.6-1 3 .4m14 .2v.8c-2 2.8-5.2 3.8-8.4 2.8-1-.8.2-1.4.8-2 1.8-1.2 4-3.8 6.4-2zm171.4 4.8c.6 2.8-1.4 4.8-3 6.4-.8.8-1.4 1.2-2.4 1.2-.8-3 3.8-4.4 2.2-7.4-1.2.2-1.8 2.8-3.2 2.4l-1.8-3.4 3.2-5c2.8.2 4.4 3.4 5 5.8m-126.2-4.4c.2 1.8-1.8 2.8-3 3.4-1.8-.2-3.8.2-5-.4 1.2-2 3.2-3.4 5.4-4 1.4-.4 1.8.8 2.6 1m-11.4-.6c0 .8-.2 1.8-1 1.8-.6-.2-.6-1-.6-1.4.2-.4 1-.8 1.6-.4m61 .2c9.2 16 19.4 31.4 29.4 47-1.8-.8-4.2-1.2-6.4-1.2-1-3.2-.4-7.2-4-9.2l-2.2-1.4c-.4-4.2-2.4-9-7-10.4-.6-5-2.8-9.8-6.8-12.8-1.2-4-7.2-7.2-3.8-12zm87.6 9.4c-1.4 3-4 6.2-7.2 7-.8-2.4 3-3.4 4-5.4.6-1.4 1.2-2.8 1.2-4.4h-.4c-1.2 2-2.8 4-4.8 5.2-.8-1.2-1.2-2.8-1-4 2.4-2.2 4.8-4.4 6.2-7 2 2.2 3.4 5.6 2 8.6m-111.4-6.4c1.4 2 2 4.8 1.4 7.4-1.2.2-2.2-1.4-3.2-2-.2-1.8-.2-3.8-2-4.4-1 .6 0 1.4-.6 2.2-1-.2-2.8-.2-3.8-.8l-1.8-2.8c3-1.8 7.4-2.4 10 .4m92 5.4c1.4 4 .2 8.4-2.4 11.4-3 4-8.8 2.2-12.8 4.4-2 .2-4.8 4-6.2.2l.2-.8 6.2-3.8c4.2-1.4 11.4-.4 12-7 0-1 .2-2.2-.6-2.8-1.8 1.8-1.4 5.4-4.8 6.2-5.8 0-10.2 3.4-15 5.8-2-1.2-3-3.8-3.8-6-.6-1.2-1.2-3-.6-4.4 5.2-1.8 6.4-8.4 12-10 6.4-1.8 13.6 1.2 15.8 6.8m-132.2-5.2c-.2.8-2 .8-3 .6.2-1 1.2-1.8 2-2s.6 1 1 1.4m21.4-.2c-.4 1.2-2.8.8-4.2 1l-1.2-.2c-.2-.6.8-1.2 1-1.2 1 0 2.4 1 3-.6.6 0 .8.4 1.4 1m29 2.4c2.2 3.8 1.2 8.8-.8 12-.8.4-1.4-.2-1.8-.8-.6-3 1.4-6.4-1-8.8-1 1.2-.2 3.8-1 5.2 0 .2-.2.8-.4.8-3.4-1.4-.6-6-2-8.8-.2-.8-.8-1.4-.2-2.2 2.6-1.4 5.6.4 7.2 2.6m9.4 4.8c3.8 5.2.6 11.8-2 16.4-1 .6-2-1.2-2.4-2-.2-4.4 4-9.2.2-13.2-.8 2-.2 4-.8 6l-1.4 4.4c-5.4-1.8.8-6 .2-9.2l-.2-5.4c1.2-1 2.8 0 3.8.4zm-27.4-.8c-3.4 3.4-8 6.4-11.4 10.2l1.2 1 12.4-9.8c1 .2 1.8 1 2.2 1.8-3.2 4-7.4 6.4-11.2 10 0 .8.8 1.2 1.2 1.2 4.4-2.8 7.8-6.2 12-9.2 1.2-.2 1.8 1 2.4 1.4v1l-10.8 9.2c-.4.8.6 1 .8 1.4 4.2-2.4 8-6.8 12-9.2 1.2 0 2 1 2.4 1.8v1l-11.4 9.4h-47.4c1-3.6 3.2-5 4.8-5.4 3-1.2 7.4 1 9.2-2.4l-.2-1.8c-4.4-3.2-9-6-13.2-9.4-2-3-6.2-1.8-9.2-2.4-1.4.2-3.4.6-3.8 2.2 0 2.4 2.2 4 3.8 5.8.4 2.2-.8 4-2.4 5-3.2 1.2-4.8-2.4-7.4-3.4-2.2-.4-5-1-6.2-3-.8-2.8.8-5 1.4-7.4l1-.8c8-.4 15.2-.2 23 0 1.8 2 3.4-.2 5.2-.2l4 .2c.2.8-1.2 1-.8 1.8 2.2 1.8 3.4-1.4 5.4-2 1.8 0 3.2 0 5 .4l-3.4 3.4c.8.6 1.8 1 2.4.6l5.4-4.2h5c-1.4 2.2-4.4 4-6.2 6.2l1.4.8c4.4-2 7.4-8.8 13.2-7v.8l-9 7.8c-.6.8.4 1 1 1.2 4.8-2.8 8.4-7 13-10 1.2 0 2.4 1 3.2 2m109.8 4.2c0 2.2.2 5.4-2.8 5.2l-1.4-.2c.2-1 1.2-1.8 1.2-2.8-1.8-.2-3 1.2-4.8.8-.2-2.2 2.8-2 4-3.4 1.2-.8 1.8-2.2 3.2-2.2z"/><path d="M298.1 197.5c4.8 6.4-1.8 12.4-3.8 18-.6.8-.2 2.4-1.4 2-4.8-4.4 1.2-9.4 2.2-14.2 0-.8-.2-1.2-.8-1.8-2 3-3.4 6.4-5.2 9.4-1-.2-2.2-1.8-1.4-3 2.2-4.8 4.4-9.2 4.2-15 1.2 0 2.2.2 3.2 1zm-151.4 1-.2.8-13.4 11h-4.4c4.4-4.4 10-8.8 15-12.8 1 0 2.2-.4 3 1m-32.2 1c-5.4 4.4-13.8 1.8-20.4 3.4-13 1.8-24.8 6-34.6 14.2-5.4 4-10.8 8.8-16 13.8-2 1-4 2.8-6.2 3.2 7.2-12.4 20.8-20.4 32.6-27 12.8-7 28.8-9.6 44.6-7.6m34.4 3c-.2 4-5 5.4-7.4 8h-5c3.2-3.4 7.8-6.8 11.6-9.6 1-.2.6 1 .8 1.6m129.4 2c-2 2.4-4.4 4.2-6.8 6l-4.8-.2c2.8-3 5.8-5.8 9.2-7.8 1.2 0 2 1.2 2.4 2m-164.4-1.4c-12.2 16.2-23.2 33-27 52.6h-.4c-3.4-2.8-.8-7.4.2-10.8 4.8-15.2 14.4-28.6 24.4-41.4l2.4-1z"/><path d="M107.3 204.7c-9.8 13.8-19.4 27.4-23.8 43.2l-.4.2c-5.2-7-10.8-16.4-20-18.4-4-1-8.8-1.2-13-1l-.6-.2c9-9.2 19.8-16.8 31.6-20.4 8.2-2.2 16.8-3.8 25.8-3.4zm198.8 5.8c3.8 7.8-4 12.4-6.4 18.4-.8.8-1.2-.4-1.4-1-1.4-3.8 2.2-7 3.8-10.2.8-1 .8-2.4.6-3.8h-.6c-2.2 2.8-3.8 6.2-5.8 8.8l-.8-.8c-.2-6 3.8-10.2 5.8-15.2 2.4-1 3.8 2.2 4.8 3.8m-24-1.6c-.8 2.4-4 1-6 1.4.2-1.8 2.2-2.4 3.4-3.8 1.6.2 2.2 1.6 2.6 2.4m70 1.8 5 2c-1.2 2.4-2.4 5.2-2.4 8.2-1.8 1.2-2.2-1.4-3.2-2.4l-7.8-11c.4-1 2-.8 2.4 0zm-9.8-.8c3 4 6.4 7.8 8.8 12-.2 1-.8 1-1.4 1.4l-.6-.2c-2.4-5-6.4-9.2-8.8-14.2zm30.6 5.4c-.6 2.2-1.4 4.2-3.2 6-3.4 3.2-8.4.6-12.2 0-.6-.8-.8-2-.2-2.4 3-2.2 7.8.4 10.2-2.4l-.6-.6h-8.8c0-1 1-2.4 2.2-2.8 3.8.8 8 .2 11.8-.2zm-236.2-.6c-6.4 6-14.6 12.2-21.6 17.2 0-2.2 1.4-4 2.4-6 4.8-3.8 8.6-8 13.6-11.2zm-9.8.6c-2 1.4-3.8 3-5.8 4.2 1.4-1.8 1.8-6.4 5.8-5zm17.4-.4s-1.4 3.4-1 5.4l2 12.2c1.2 2.2 3.8 4.2 4.4 6.8h-21.2c-.6-.8.2-1.4.2-2.4-1.4 0-2.2 2.2-4 2.4l-4.8-.2c5-5.8 13.2-9.2 16.8-16.2l-.2-.2-20.8 16.8h-4c-.4-1.2.6-2.4 1.4-3.2 9.2-7.2 26.4-21.2 26.4-21.2zm122.6-.2c1.2 2.4 2.8-.2 4.2 0l3.8.2c-.6 1.8-2.8 2.4-3.8 4-.2.8.4 2 1.4 1.4 3.4-2.2 6-7.2 10.8-5.2l-.2.8-9 7.8c.2.6.6 1.2 1 1.2l11.4-9c1.2.6 2 2 2.2 3.2l-11.2 9.8c0 .6.2 1.2 1 1.4l11.4-9c1 .6 1.8 2 1.8 3.4l-11.4 9.4c-.2.8 0 1.4.8 1.4 4-2.4 7.8-6.2 11.8-8.8 1.4.2 1.2 2 1.8 3-3.4 3.2-7.4 7-11.8 9.4h-71.8c-2 0-1.2-2.4-2.8-3.2-1.8-2-4.8-3.8-3.2-6.4.8-2.4 3-4.4 5-6.2 2.2-7.4 5.6-9 5.6-9zm45.4 6.4c1.8 5.8-2.4 10-3 15.4-1.2.4-2.8-.2-3.8-1-.4-3.4 2.8-6.8 2-10.4h-.8c-1.8 2.4-2.8 5.8-4 8.4-.8 0-1.4-.8-1.4-1.4.2-6 6.4-9 7.4-14.4 1.8-.4 3.4 1.6 3.6 3.4"/><path d="M81.7 222.1c1.2 1 1.2 3.2.8 4.8-.4 2-2.4 3-4.4 3s-3.8-1.4-4-3.4c-.4-1.8 0-3.8 1.4-5 1.8-1.4 5-1.4 6.2.6"/><path d="M81.1 224.9c0 1.2-1 2.8-2.4 3-1.2 0-2.2-1-2.8-2 0-1.2.6-2.8 2-3 1.4-.6 2.8.4 3.2 2m284.2.2c.8 1.4.4 3.8-.2 5.2-1 2.4-3.2 4.2-6 4.8-4 .6-7-3.2-9-6.2v-.4c3.8-1 7 1.4 10.4 1-1.8-3.2-6-2.8-9.2-3.8 3.4-4.8 9.2-.6 14-.6m-44.2 4.2c4 3.8 2.8 9.2 4 14.2-2 1.2-4.8 2.8-7 1.2-1.4-3.8 2-8-.4-11.2-1.4 2.8-1.8 6.2-2.2 9.8-1.4 0-2.4-1.4-3.2-2.8-1.4-4.8.8-9.4 2.8-13.2 2.2-.4 4.2.6 6 2m33.2 7.6c-1.2 3.2-4.8 5.4-8.4 5.2-5.4-1.2-7.2-7.2-9.8-11.4 0-1 1-1.2 1.8-1.4 3.2 1.2 4.2 7 8.8 6.2-2-2.2-4.4-5-5.8-7.4 3.4-1.2 6.2 1.4 8.4 4zm-20.2-5c2 2.4 2.4 5.2 4 7.8-1.2 1.8-2.2 5.2-5 4.4-2-2.4-.2-7.2-3.8-8.4-.6 3.4 1 6.4 1.8 9.4-1.2 1-2.2-.2-3.2-.8-2-4.2-1-10-3.2-14.2.8-1 2-1 3-1.2 2.4.2 4.8 1 6.4 3M78.5 245.3c3.4 4.2 4.8 9.4 7 14.2-4.4-3.4-9-7.8-13.4-11l-.8-5.2c-1.2-4.2-5-8.2-9.2-9.2-3.8-.8-7 .4-10 1.8l-11.4-.6v-.2c3-2.2 6.2-4.4 10.4-4.2 11.6-1.2 22 4.4 27.4 14.4m218.6-9.4-3.8 3.4c-1.8.2-4 .4-5.4-.2 2.2-2.4 5-4.2 7.8-6.2 1.2.4 1.2 1.8 1.4 3m-138.8 3c-1.2-.8-3.2-2.4-3.2-4.2 1.6 1 3 2.4 3.2 4.2"/><path d="M68.5 241.9c1 2 1.8 4.8 1 7-7.2 11-11.8 23.2-12 37-4.4.6-7 5.2-8.8 8.8-2.8-.2-5 1-7.2 1.8-.2-10.8 2.2-21 5.2-30.6 1.2-3.4 3.4-6.8 3.4-10.4l-.2-.2c-6 8.2-7.4 18.2-9.4 28l-1.4 16.8c-1 1.4-2 3.4-4 2.4-2.2.2-1-2-1.4-3.2-.2-9.2 1-18.2 4-26.4 3.2-12.2 8.4-23.8 15.8-34.2 2.2-2 5.4-2.8 8.4-1.8 2.6.2 5.6 2.2 6.6 5m133.8-2.8-.8.4-13.8-.2v-.2c2.2-.8 4.8.2 7-.8 2-2 6-2.2 7.6.8m158.8-1v.2l-3.8.6c-.4-.2 0-1 .2-1.2 1-.4 3-1 3.6.4m-63 1.2h-.8l.2-.6h.4v.6zm68.4 3.4v.4c-9.4-.8-17 5.2-23.4 11.8-1.4 2.4-2 5.2-2.8 8-1.4-1-1.4-3-1-4.4.8-3.8 2.2-8 6-10 6.2-3.8 12-9.2 20-7zm-21 2.4-5.8 4.8c-1.8-.8-2.2-2.4-3.4-3.8 1-1.4 2-3 3.2-4.2 1.8 1.4 4 2.2 6 3.2m-226-1.6c-3 3.4-7 6.2-10.8 9.2-.4-1.8.2-3.8.8-5.4 2-1 3.4-3.4 5.8-4 1.2.2 2.8-.2 4.2.2m35.8-.2c3.2 2.8 7.8-2.8 9.8 2.4 3.4 9.4 14.4 11.2 23.2 13.2 3.8-.8 9-1.4 11.4 2.2 2.8 3.4 7 5.2 11.2 6l.6.4-.8.6h-88.4c-.8-.8-.2-2-.6-3-2 .2-3 3-5 3h-4.6c3-3.2 7-6.2 10.2-9.2.6-.8.6-1.8.6-2.4-5.2 3.4-10 8-15 11.8-.8.2-1.8-.2-1.4-1.2l.4-2.4 17.4-14.8c.2-1 1-1.8.6-2.4-6 4.2-11.4 9.2-17.4 13.8l-.2-.2.4-4 16.2-13.2 1.4-.2h30zm132.8.2s-5 2.8-2.4 4.6l6.4-4.2h5c-3 3.4-7 5.8-10.4 9-.2.8 0 1.8.6 2l12.4-9.4c1.2-.2 1 1.2 1.2 2.2l-.2 1-13 10.8c0 .6 0 1.4.4 2l13-10c1.2.2.8 2 1 2.8l-1 1.4-16 13h-37c-4.4-2.4-8.8-5.8-14.2-5.8-3.4-.6-6.2 1.8-9.8 1.4-3.4 1-7.2 1.2-10.4-.2-3.8-.8-5.2-4-6.4-7-2-3-6.4-.4-7.8-3.8-.4-1.8-1.2-3.8-3-4.8-3.4-1.2-5.2 5-8.8 1.2-1.8-.8-3.8-2-4.2-4 .2-.8.2-1.8 1-2.2h20.2l.4 4c4.4 2.2 8.8 6 14.2 5 .8-1.4.6-3.2-.2-4.4-1.8-2-4.4-1.8-5.8-4l.2-.6zm-242 1.4c0 .4 0 1-.4 1-.8 0-1-.4-1.2-1 0-.8 1-.4 1.6 0m-2 3.6-2.8 5.8c-2.4-1-3.4-4-5.8-5.2-1-1.2-3.2-1.2-2.8-2.8 1-1.4 3-1.2 4.2.2 1.2.4 2 3.2 3.4 2.2 1-1.4-1.4-2.8-1.8-4 2.6.2 4.6 1.8 5.6 3.8"/><path d="M216.3 249.3c.2.2.2.8-.2 1-2.4-1-5-2-7.2-3.2-.6-.8-1.2-1.4-.6-2.2 3.2.2 5.2 3.2 8 4.4m145.2-3c-5.2 3-10.4 6.2-15.4 9.8-.6.2-.8-.2-.8-.4 4.2-4.8 9.8-7.8 15.2-9.8h1zm-23 6-1.4 4.4-.6-.2c-2.8-3-5-5.8-7-9 2 .6 4-1.4 5.4.2zm33 0c-3.8-.4-7.8-2.8-11 .2-4.2 2.8-9 5.4-12.4 9.2l-2 7.4c-.8.2-1-.8-1.4-1.2l2.2-9.2c5-4.8 10.8-7.4 16.4-10.4 3 .8 7.4-.2 8.2 4m-332.4 3.6c-.6 1.4-2 2-3.4 2-4.4.2-7.2-4.4-11.8-5 0-.8-.2-1.8.8-2 3.2-.2 5.8 4.2 9 2l-.2-.6-5.4-3c4.4-2 8.4 3.2 11 6.6M23.3 252.3l-.2.2v-.2z"/><path d="M366.7 257.9c-3 3-6.8 5-10.2 7.2-2-.2-3.4-2-5-3 2.4-3.2 6.4-5.2 9.8-7.4 1.4-.2 2.4-2 4-1.2 1 1 1 2.8 1.4 4.4m5.2-1.6 1.2 4.4c-1.2.2-3-.8-4-1.8-.2-1.4-1.2-3.2-.8-4.8 1.6.2 3.4.8 3.6 2.2m-299.2 1.2c.6 1.8 0 3.4-1 4.8-2.2 2.8-5.4 4.2-8.4 6 1.2-3 5.8-5.4 5.2-9.4-1 0-1.8 1.4-2.4 2.2 0-2.2 1.4-4.8 3.2-6.4 1.8-.2 2.8 1.4 3.4 2.8m-41.2 1.8c.8 1.2-1.2 2.2-2 2.8-4.4 1.8-8.2-1.4-12.8-1.4-.2-.8.2-2.2 1.2-2 3-.8 5.4 2.4 7.4-.2-1-1-3-1.2-4.2-2-.2-.6.2-1.2.8-1.2 4-.4 6.6 2.2 9.6 4m271.6 1.6c-2.8 2.8-6 5.2-9 7.8-1.4.2-3.2.2-4.4 0l.6-1 12-9.8c1 .2.4 2 .8 3m-264-1.6c-2.4 9-6 18-7.2 27.4-.8 5-.6 10.8-.8 16-2 1.4-3.8 3.8-5 5.8-3.8-2 .4-6.8-2.2-9.8l-2-3.8c1.4-3 1-6.8.2-10 3-3.2 4-7.2 3.2-11.8 2.4-2.4 4.4-5 4.2-8.8 1.8-1 3.8-2 5-4.2 1.4 0 3 0 4.6-.8m334.4 4.8-.2.8c-4.4 4.4-9.8 7.2-14.8 10.4h-.8c-.4-2.4-.8-5.2-.4-7.8l9.2-6.8c2.8.6 5 2.2 7 3.4m-296 1.8c.8 2 .6 4.4-.6 6.2-3 5.4-10.2 3.8-15.2 5.8h-.2l.2-2.2c3.8-1.8 9.8-2 10.4-6.8-3.2 1.2-6 3.4-9.8 3.8 0-1.4 2-2.8 3.2-3.4 3-2 6.8-3 8.8-6.4 1.8 0 2.4 1.6 3.2 3m-50.4-.8c.6 1.2 0 3-.8 4-3.4 5.8-10.2 1.8-15.4 3-1.4-3 2-3.4 4-3.8 1.8-.8 4.8 1.4 5.4-1.2-1.2-1.2-4-1-6-.8q-.9.3-1.8 0c.6-2 2.8-3.4 4.8-3.4 3.4.4 6.6 1.4 9.8 2.2m327.6 2.2c.2 2.2.4 4.4.4 7-2.4-.2-4.4-2.4-6.8-4.2 0-2 .2-4 1.2-5.8 2 .6 4 1.6 5.2 3m-51.4 1c-1.2.8-3.4.4-5.2.2 1-1.8 3.2-3 4.8-4.2 1 .8.8 2.8.4 4m-55.8 2.2c4.2 1.8 9.2 2.2 12.8 5.8 4 3 7.8 7 12.4 8.4 2.8.8 6 1.4 7 4.4.8 3.8-4 4.8-5.8 7.8-3.2 2.8-2.8 7.2-4.4 10.8-4 3.8-7.2 8-12.2 10.4-4.8 2.4-2.2 9-7.8 10.8-6.8 4-15.2 10.2-14 19.4-.2 1.8 1 4-.2 5.2-5.2-.6-5.4-6.2-7.8-9.8.2-4.4-1-8.8-1-13 1.8-4.8 2.4-10.2 4-15.2.8-3.2-1.8-5.4-2-8.4-.6-4.4-5.8-4.8-8.2-8.2-1.4-4-4-7.8-5.8-11.8-.2-1.8-1-4 .2-5.8 2-2.2 3.4-4.8 3.2-8-.2-2.4-1.4-4.8-3.2-6.8 3.4 1 6.8-.2 10.2-.4 5.2-1.4 11.8-2 16.8.8zm-144.6 1.6-.6 4.2c-2.8.8-5.4-1-8.4-.4-.2-1.2.4-2.8 1.4-4 2-1.8 5-1.4 7-.6zm8.2 1.2c-1 1.2-2.8 2.8-4.2 3.4-.4-1.2-1-3.2.6-3.8 1.2-.2 2.4-.2 3.6.4m9.4.4-12.4 10h-.4l-.6-3.4c2.4-3 5.8-5.2 9-7.4l4.4.2z"/><path d="M215.7 273.1s1 2.8-3.4 8.8c-1 5.8 2.8 10.2 4.8 15 .6 1-.8 1.8-1.4 1.4h-92.6c.2-1.8 4.2-2.8 1.8-4.8l-6.2 4.8-4.8-.2c2.8-3.2 6.8-5.8 10-9 0-.6.2-1.4-.6-1.8l-12.8 10c-1-.8-1-2.2-1-3.4 4-4 8.8-7.4 13-11.4v-1.4h-1c-4.2 3.2-8.4 7.2-13 10-.8-1-1-2.8-.6-4l13.8-11.4c.2-1 1.6-2.2 1.6-2.2zm81.4.4-9.4 8c-.6.8-.6 1.4-.6 2.4l1-.2 13.4-10.8c2.4-.8 1.8 2 1.8 3.4l-17.8 14.4c-.2 1-1 2.2-.6 3 6-4.2 11.4-9.8 17.8-13.8 0 2 .2 4.8-1.4 6l-15.2 12h-9.4c.2-2 3-3.2 4.2-4.8 1-2 1.2-4.4.6-6.4-3.2-3.8-8.2-3.8-12.2-6.2-3.2-2-9.2-7.4-9.2-7.4h27.8s0 1.8.6 2.4c1.8-1.4 3.8-3.2 6.8-2.4.2-.4 1.4-.2 2-.2v.6zm-274 .8c.8 2.4.2 5.4-1.4 7.8-3.8 3.8-9.8 2.2-14.2 4.2-.8-.2-1.2-1.4-.8-2.4 2-2.4 4.8-3 7.4-3.8 1.2 0 3.2.2 3.8-1.8l-.2-.4c-4.2-.6-7.8 1-11 3h-.2c0-2 .2-4.2 2.2-5.4 4.2-3.2 9.4.2 14.4-1.2m53.2 3.4c.2 3.2-1 6-3.4 8-3.8 2-8.4.8-12.4.2-.8-1.2.2-2.4 1.4-2 2.4-.2 6.4 1.2 7.8-1.8l-.2-.4c-2.4.2-5.8 0-8 0l-.2-.6c2.8-3.2 7.8-2.2 11.4-3.2.8-.2 3-1.8 3.6-.2m26.4 1.6c.2 1 1.2 2.8 0 3.8-3.8 4.2-9.2 3.2-14.2 4.2-.8-1-.2-2 0-2.8 2.4-2 6.4-.8 8.4-3.8l-.4-.2c-2.2 0-4.4.8-6.2.2 2.4-4.2 8.4-2.4 12.4-1.4m-81.8 10.2c1.2 8-8 8-11.8 12.2-.8.8-1.2 1.4-2.2 1.4l-1.8-3c1.4-3.4 5.4-6 9-7 .4-.8 1-1.2 1-2-4 0-7.8 2.4-10.4 6-.8-.4-.8-1.8-.4-2.8.4-2.2 1.4-5.4 4.2-6.2 3.8-1.2 7.4-1.8 11.4-2.2zm80.6-2.4c0 2-1.2 4-2.4 5.4-3.4 5-9.8 4.8-14.4 7.8-.8-.2-.8-1.2-.4-2 2.8-2.4 6.8-2.8 9-6l-.2-.2-8.8 3c0-1.2.4-3 1.8-4.2 4.2-3.2 10.6-1.2 15.4-3.8m-30.8 2c.6 3-2 5-4 6.8-4.2 3.8-10.8 1.4-15-.4-.8-.6-.2-1.4.2-2 4-.4 9 2.8 12.2-1v-.2c-3.4.4-7.2-.6-10.4-1.2.4-2 2.8-2.2 4.4-2.4 4.4-.6 8.4 1 12.6.4m33.6.6c1 5.2 2.8 10.2 4.2 15.2-2 2.2-4.8 4-7.4 5-3.4-1.4.2-4.2-.4-6.8.4-2.8-.6-5.2-1-7.4l4.2-6.2zm197-.2c1.2 4.2-3.4 6.4-6.2 8.8h-4.2v-.6c3.2-3 6.8-6 10.4-8.2M58.7 299.9c0 1.8-1.2 3.2-2.8 4.4-2.2 1.8-5 3-8.2 2.8-3-.8-6-2.2-8.4-4 .4-1.2 1-2.8 2.2-2.8 3.8.2 7 4.2 10.4 1.2v-.6c-3-.2-5.4-1.4-8-2.4-.8-1.8 1.8-1.8 2.8-2.2 4.4.4 7.8 3 12 3.6m39.8 1.6c1.2 7-7 9.4-11 13.2-1.2-.4-1.8-1.8-2.4-2.8 1-4.4 7.4-4.8 8-9.4l-.6-.2-8.4 6.4c-1.2-1.8-.2-4 .4-5.8 3.4-3.2 8.4-3 12.4-5.4 1.6.4 1.4 2.4 1.6 4m-75.8.2c1.2 7.2-6.8 10.4-10 15.4-1-.2-1.4-1.2-2-2.2 1-3.2 3.8-5.8 6.2-8.2.2-.6.4-1.8-.2-2-2.8 1.8-5.2 4.4-7 7.2-1.2 0-1.2-1.4-1.4-2.4-.2-3 .8-5.8 3.4-7.2 2.8-1.8 5.8-3 8.4-4.4 1.6.4 2.2 2.4 2.6 3.8m40.8-1.4c4 8.4 11.2 18.8 22 18-1.8 6.2 3.4 10.4 6 15-.8 5 3.2 8.8 6.8 11.2-.2 2.4.6 5 1.2 7.2-3.2 9.2-.6 19.2 5.4 26.4 11.8 14 28.6 17.2 46.4 18h4.2c5.2 3.2 11 5 17.8 4.2 5.4-.2 11-1.4 16-3.4.8 1.8-1.2 3-2.2 3.8-5.8 4.2-13 5.2-19.4 7.8-12.8 8-29.4 6.8-44.6 5-9-1-16.8-5.2-25-8.2-16.2-8.8-30.4-22.8-47-30.4l-6.2-2c-.8-3.2-4.2-5.4-6.2-7.8.6-4.4-1.8-8.4-5-11.8l.6-3.4c2-7.8 3.2-16.2 3-25-1.2-3 1-5.2 2.2-7.4.8-.2 1.8-.2 2 .8 2.8 9.4-.6 19.2-2 28.4.2.4.2 1 .8 1.2l1.2-1.4c1.2-4.4 2.2-9 2.8-13.8-.4.2-.8 0-.4-.4l.4-.2c.8-5 .2-10.4-.8-15 2.8-2 5.8-4.4 7.8-7.4 4.4-1 8.8-4.2 10.4-8.8q.6-1.5 1.8-.6m58.2 2.4c-1.8 2.8-4.4 4.4-7.2 6.2-.8-1-2.2-2.8-1-3.8 2.2-2.2 5.2-3.2 8.2-2.4m99.6 0c1.8 2 5.8 2 5.4 5.4.8 3.2 3.2 7 1 10.4l-2.2 8.4h-82.4c.2-.8-.2-1.4-1-2-1.2.2-2.2 1.8-3.8 2.2l-5-.2c1.4-2 4-3.8 5.8-5.4-.2-.8-.8-1.8-1.8-1-4.2 2.2-7 8.8-13 6.2 3.2-3.8 8-6.4 11.2-10 0-.4-.2-1.2-.8-1.4l-12 9.2c-1.2-.2-1-1.8-1.8-2.4 3.2-3.8 7.4-6.8 11.2-10 .4-.8 0-1.2-.6-1.8-4.2 2.8-8 6.2-12 9.2-1-.8-1.8-1.8-1.8-3 3.8-3.4 8.2-6.4 11.8-10.4 0-.6-.6-1-1-1.2l-12 9.2c-1-.6-1-1.8-1.4-2.8 3.2-3 7.2-6 11-8.8h95.2zm59.8 0c.8.8-1.2 2.8.4 2.4 1.8-2.4 4.8-3 7.4-2.4l-.4 1c-5.2 5.2-13 8.8-16 15.4l2-1.2 19-15.2h4l-.2 2-27.8 22.8-14.8-.2c-.6-6 6-8.8 10-12 2.8-3.2 8-5.8 7.8-10.8l.8-1.8zm-233.8 6.6c.8.8-.2 1.4-.8 2-2.4 2.2-5.2 3.8-8.8 3.4-3.4 0-6-2.8-9-4-.8-.8.2-1.4.6-2 4.2-1.2 7.2 4.8 11.2 1.4l-1-.6c-3-.8-5.8-2.8-8.8-3.4.6-1.2 2-1.8 3.2-2 5.2.4 8.6 4.4 13.4 5.2m74.8 21.4c-3 2.4-6.2 4.4-9.4 6.8l-4.8-4.8c1-6-2.4-10.4-5.8-14.4 1-2.4-2-5.4.8-6.8l6.4-3.8c3.6 8 7.6 16 12.8 23m-95-16.2c1.8 5-1.4 9.4-4 13.8-1.2.2-2.8-.2-3.8-1-1-4 4.4-6.8 2-10.4-1.4 2.4-3.2 5.4-4.2 8.4-1.4.4-2-2-3-3-1-4 3.4-6.4 5.8-9.2l3.2-3.4c2.2.6 3 3 4 4.8M294.9 309.7l.2.6-3 6.4-13.4 10.8-5-.4z"/><path d="M99.7 313.9c1.8 6.8-3.8 11.4-7.2 16.2-1.2-1.2-3.8-3-2.4-4.8 1.8-3.2 6.2-5.8 4.2-9.4-1.8 2.4-3.8 5.4-5.8 8-1.2-.2-1-1.8-1.2-2.8.2-5.8 6.8-7.8 10.2-11 1.2.6 1.8 2.6 2.2 3.8m-63.2 3.4c-.6 1.4-1.4 2.8-2.4 3.8l-4.4-1.8v-5.4zM74.1 320.7c-.4 1-2 1.4-3 .8-2.8-1.4-4.8-4.4-4.4-7.4 1.8 2.8 4.6 4.8 7.4 6.6M34.3 324.7c.4 5.4-.2 11-1.2 16-.8 1-1.4 0-2.2-.2-1.2-3.4 2.8-7-.2-10.2l-.6.8-1.4 7.2c-2 0-3.4-2.2-4.4-3.8-1-5 3.4-8.4 5.2-12.8 1.8.2 3.6 1.2 4.8 3m71.6 6.4c-.2 4.4-3.4 7.4-6.2 11-1 0-2-1-3-1.4 0-2.8 2.8-4.8 3.4-7.4 0-1.2.2-2.4-.2-3.4l-5 8.2c-1.4-.4-1.2-2.4-1.4-3.8 1.4-4.8 5.8-8.4 8-12.4 3 1.8 4.8 5.6 4.4 9.2m182.2-7.8c-1.2 1.4-2 5.4-5 4.2l-.2-.2c1.4-1.8 3.2-3 5.2-4m-266.4 7.4c-1.2 1.4-3.4 2.2-5.2 3.8-1-1.4-.6-4.4.6-5.8zm202 1s2 7.8 1.8 11.4c.2 3.4 3 6 3.4 9.2-1 3-4.2 2-6.8 2.2l-.2-.2 2.4-2.4c-2.4-.8-4.4 1.4-6.8 2.8h-5.4c.2-1.4-1.2-1-2.2-1-1.8 1.8-5.2.8-7.4.8-.6-1-2.4-.8-3.2-.2-1.8.8-4 .6-6 .2.2-.2.8-1 .2-1.2-2-1.2-3 1-4.4 1.4l-5.2-.2 2.2-2.2c-2.8-2.8-4.4 2.2-7 2.4-1-.2-2.8.2-3.4-.6l4.2-4c-.4-.6-2-1.2-2.4-.2l-6 4.8-4.8-.2c2-2.2 5-4 7-6.4l-1.4-.8-9.8 7.4-5.2-.2c3-3.2 7.4-6 10.2-9.4-2.2-2-4 2-6 2.8l-8.2 6.4c-1.2.2-2-1.2-3-1.8 3.2-4 8-6.4 11.8-10.2 0-.8-.8-1-1.4-1.2-4.2 2.8-8 6.8-12.4 9.8-1-.2-2-1-2.8-2 3.4-3.4 8-6.8 11.2-10.2-.2-.8-1.4-1.4-2-.8l-11.2 9.2c-1.2-.2-2-1.4-3-2.2 3.4-3.8 8-6.4 11.2-10.2-.4-1.4-2-1-2.8 0l-10.2 8.2c-1.2-.2-2-1.4-2.8-2.2 2.8-3.4 10.2-8.8 10.2-8.8h77.6zm57.6 1.2-26.4 21.8-5-.2c9-8 18.2-15.8 27.8-23l4 .2zm-148.4-1c-1 .8-2 2.8-3.4 1.8-.4-.6-1.8-1.2-.8-2 1.2 0 3.2-.6 4.2.2m8.4.2c-2.4 2-5.2 4.8-8 6-.8-.8-2.4-1.8-1.2-2.4 2.8-2.2 5.8-5.6 9.2-3.6m131.6-.2s-18 15.4-27.2 22.8l-4.8-.2c9-7.8 27.2-22.8 27.2-22.8zm-9.4.6-24.8 20.4c-1.2-.6-1-2.2-1-3.8l2.4-3c-.8-.8-2 1.4-2.8 0 .2-6.8 6.8-11 11.4-14.4h14.4v.8zm-239.4 5.2 2.2 2.8c-1.8 3.8-5.4 6.8-8.2 10.2-1 0-1.2-1-1.4-1.4.4-3.4 3-6 5.2-8.4-1-1-2.2 0-3.2.6-1.2 1.2-1.8 3-3 4.4-1.2-2.8-.6-6.4 1.4-9 1.4-1 2.8-3 4.8-2.4zm87.8 5.8c0 4.2-2.4 7.2-4.4 10.8-1.2.8-2.4-.4-3.2-1.2l-.2-.8c.8-3.4 5-6.2 3-10l-5 8.2c-1.2-.6-1.4-2.2-1.8-3.4.8-4.4 5.2-7 6.8-11 .6-.2 1-.4 1.4-.2 2 2 3.4 4.6 3.4 7.6m-79.4.4c0 .8 0 1.2-.6 1.4-1-.8-1.8-1.4-2-2.4 1.2 0 2 .2 2.6 1m-1 9c-.6 4.4-4 7.4-6.8 11.2-1.2.8-2.2-1-3.2-2-1-2 1.2-3.8 2-5.4.8-2 3.2-3.4 1.8-6-2.2 2.4-4 5.8-5.8 8.4-1-1-1.2-2.8-1-4.2 1-4.4 5.8-7.4 8.4-11.2 3.2 2 4.4 5.8 4.6 9.2m88.6 3.2c-.6 4.8-5 7.2-8 10.4-1-.6-2-1.2-2.4-2.2 1.4-3.4 6-5.8 4.8-10-2 2.2-3.8 5.2-6 7-2-6 4.4-10 6-15.2 3.4 2 5.4 6 5.6 10M94.3 350.5c.2 2-.8 4.2-.6 6.8 0 2.8.6 5.2.8 8v.2c-2.8-3.4-4.4-8.8-2.8-13.2.6-1.2 1.6-1.8 2.6-1.8M105.9 356.9c-.4 3.2.6 6.4 2.2 9l2.4 3c-2.2 3.8-1 8.8.8 12.2-8.2-6.2-12.8-15.4-11-26l1-1.4zm-69.6 7.2c-.6 5.2-4.4 9-6.8 13.4-1 .2-1.2-1-1.8-1.2.2-4.2 4.2-7 3.8-11.4h-.6c-2 2.8-3.4 5.8-5 8.8-1.2-1.2-1.4-3.4-1-5.4 1.4-4.4 6.2-7.4 8-11.8 3 1.4 3.6 4.4 3.4 7.6m128.8-4.4c-.2 1-2 .6-2.2 0zm8 0c-.4 1.2-2 2.2-3.2 3-1 0-2-.2-2.4-1 .8-2.6 3.4-2 5.6-2m3.8 5.4c-1.4 0-2.8-.8-4-1.4 1-1.4 3-2.8 4.4-4h5.4zm15.4-5.4c-2.8 2.8-6 5.4-9.2 7.2l-3.2-1c1.8-2.4 4.8-4.2 7-6.2zm9.4.4-10.2 8.2c-1.2 0-3-.2-4.2-.8 2.2-3.2 6-5.8 9-8h5.4zm9.6-.4c-3.2 3.8-7.4 6.8-11.4 9.4l-4.2-.6.2-.8 10.2-8.2h5.2zm9 0c-3.4 3.8-7.8 6.8-11.4 9.8-1.4-.2-3.2.2-4.2-.4 3.4-3.2 7.4-6.4 11.4-9.2h4.2zm10 0c-3 3.2-6.8 5.8-10.2 8.4-2 .6-4.2.8-6.2.6l.4-.8 10.4-8.2zm9.2 0c-2.4 2.2-4.2 4-6.8 6-2.2.6-4.8 1.2-7 1l8.8-7zm7.8 0c-2 1.4-4.4 2-7 3 .2-1.2 2.4-1.8 3.4-3zm-123.4 6.4c1 5-1.8 9.2-5.4 12.4l-3.8 2.4c-3.8-2.4 1.8-5 2.8-7.4 1.2-1 1-2.8 1-4.4h-.4l-6 7.2c-.8-1-1.2-2.4-.8-4 1.8-4.8 6.2-7.4 9.4-11.2 2 .8 2.8 3.2 3.2 5m-57.8 6.8c16.4 11 31.2 25.8 50 31 6.8 2 14.4 2.8 22 3.2v.2c-1.4 1.2-3.8 1.4-5.8 1.2-12.4-.8-24-4.2-34.2-10.4l-38.4-27c-4.4-2.2-9.4-3.4-14.4-3.4.4-1 1.8-1.4 2.8-1.8 6.6 0 12.4 3.4 18 7m-43.2-2.2.4 2-1.2 1c-.2-1.2-2.4 0-3-1.4.2-2.4 2-4 3.2-6 2 .6 0 2.8.6 4.4m19.2 1.2c3.2 5.8-1 11.4-2.4 16.8-1.2 1-2.4-.8-3.8-1.2-.2-4.2 4-7.8 1.8-12-1.4 3-2.4 6.4-3.8 10-1 0-2-1-2.2-2-1.4-3 .8-5.8 2-8.2l4.2-7c2 .4 3.4 2 4.2 3.6m172 8.2c2.4-.8 5.2-1.4 7.8-1.4-10.8 8.8-27 5.8-40.4 4.8-9-1.2-18-3.2-26.4-6-1-1-2.2-2-2.4-3.2 19.2 5 39.8 9.6 61.4 5.8M81.5 397.3c-1.2.8-3 .6-4.2.8-2.8-4.2-7.2-6-12-6.2-2-4-6-5.8-9.8-7-.6-5-5.8-7.4-9.8-9l.4-.4c14 2.8 24 14.4 35.4 21.8m44-16.6c.2 3-1 5.2-2.8 7.4-1 .2-2-.6-2.8-1.2 1.2-1 1.8-2.4 1.4-4-2 .2-3.8 4.8-5.8 1.8 2.2-3.2 5.4-5.2 8.2-8.2 1.8.4 1.4 2.6 1.8 4.2m34.4 14.4c-1.2.6-2.2-.8-2.8-1.8-2.4-5.4-5-11-6.8-16.8l2.2 1.8zM52.3 382.9c2 5.4-1.4 10.4-1.8 16-1.2.2-2.8.2-3.8-.8-1-4.2 3-8.4-.2-12.2l-.6.6-1.4 10.2c-1 0-2.2-1.4-2.4-2.4-2.2-5.4 2.2-9.4 3-14.4.8-2 2.8-.2 4 0s2.4 1.6 3.2 3"/><path d="M213.5 385.9c-1 3.4-3.4 6.4-5.8 9.4-11 12-24.2 22-38.6 27l-3.4.8c.6-4 2-8 2.4-12.2 8-3.8 17.8-4.2 23.8-12.2.2-1.2 1.2-3.2-.2-4-3.4-1-5.8 2-9 2.2-6 1.2-13.4 2.8-19.2.2-2.8-5.2-5-10.8-7-16.2l.2-.4c17.8 4.6 37.8 7.8 56.8 5.4"/><path d="M222.3 381.9c-2 5.2-6.2 9.4-9.8 14.2-14.2 17-33 27.2-52 34.4.8-1.4 2.2-3.4 3.8-4.8 15.8-3.2 28.4-13.2 40.6-24.2 5.2-5 9-11 12.2-17 2-1 3.4-2.2 5.2-2.6M64.1 394.5c1 4.4-.8 9.8.6 14.4-1.4.4-3-.2-4.2-.8-1.8-3.8 1-9.4-2.4-12.8l-.2.4v10.8c-1.4 0-3.2-2-4-3.4-1.4-5.2.8-10.4 1.8-15.4 2.2-.6 4.2 1 6 2.4zm8 2c2 .2 3 2.4 4 4 1.8 4 1 9.2 2.4 13.2-.8 1.2-3 .8-4.2.2-2-3.4-.6-9-4.4-11.8.2 3.8 1 7.4 1.8 11-.8.8-2-.2-2.4-1-5.2-4.4-1.8-11.4-2.4-17.4 1.6-.4 3.8.2 5.2 1.8m22.6 19c-1.4.6-3.2 1-4.8.6-2.8-2.8-2.4-7.8-7-9l.2 1.2 4.2 8c-2.4.4-5.2-.2-6.4-2.4-2.2-3.8-1.2-9-2.4-13 3-1.4 6.2 0 8.4 1.8l3.4 4zm13.8-3.4c-.6.6-.8 1.8-1.8 1.4-2.8-.6-4.4-4-7.8-3v.4l5.2 3.8c0 1.2-2 1.8-3.2 1.8-5.8-1-6.4-7.4-8.8-11.4l.2-.2c5.2 3.4 11 4.4 16.2 7.2m56.6 3.4c-1 5-2.2 10.2-6.8 13.4.6-4.2 2.8-8.8 3.2-13.8-.2-2 2-2.4 3.2-3 1.2.6.6 2.4.4 3.4M161.9 17.5c-1.2.2-2 .2-2.4.6q-.9.6-.6 1.2c.6 1 3.8-1.2 5.2 1.2.8 1.4.2 2.8-1.4 3.6-1.2.6-2 .6-2.8.8l-.8-1.6c1.4.2 2 0 2.8-.4q.9-.6.6-1.2c-.6-1.2-3.8 1.2-5.2-1.4-.6-1.2-.2-2.6 1.4-3.4.8-.4 1.6-.6 2.6-.8zm9.4 4-5.6 1-1.4-8 5.4-1 .2 1.4-3.6.6.4 1.6 3.4-.6.2 1.4-3.4.6.4 2 3.6-.6zm7.8-8h1.6l-.2 8h-2l.2-5-2.2 2.4h-.2l-2-2.6-.2 5h-2l.2-8h1.6l2.4 3zm5.8 2h.6c1 .2 1.4.4 1.2 1 0 .6-.4.8-1.2.8l-.8-.2zm-1.8-1.6-1 8 2 .2.4-3.2 1.6.2c1.8.2 2.6-1 2.8-2.2.2-1-.4-2.4-2.2-2.6zm12 9.8-5.6-.8 1.2-8 5.6.8-.2 1.4-3.6-.6-.2 1.6 3.4.6-.2 1.4-3.4-.6-.4 2 3.8.6zm4.4-6 1 .2c.8.2 1 .4 1 1-.2.6-.6.8-1.2.8l-1-.2zm-1.6-1.8-1.4 8 1.8.4.6-3.2h.6c1 .2 1 1.8 1.6 3.6l2 .4c-.6-2.6-.8-3.6-1.4-4 1-.2 1.4-.8 1.6-1.8.2-1.2-.6-2.4-2.2-2.8zm15.4 3.6-3.4-.4-.2 1.8 3.4.4-.2 1.4-3.4-.4-.4 3.4-2-.2.8-8 5.2.6zm3.2 6.6h-2v-8h2zm3.4-6.8 1.2-.2c1.8-.2 2.6 1 2.8 2.2s-.4 2.6-2.2 2.8l-1.2.2zm-2.2-1.2.8 8 3.2-.4c3-.4 4.2-2.2 4-4.4s-1.8-3.8-4.6-3.6zm16 5.8-5.6 1-1.6-8 5.4-1 .2 1.4-3.6.8.4 1.6 3.4-.6.2 1.4-3.4.6.4 2 3.6-.8zm7.4-2-5.6 1.6-2.2-7.8 1.8-.6 1.8 6.4 3.8-1zm3.2-1.2-1.8.6-2.6-7.6 1.8-.6zm4.4-8.2c-1.2 0-2 0-2.6.4-.6.2-1 .8-.8 1 .6 1.2 4-.8 5 1.8.6 1.4-.2 2.8-1.6 3.4-1.2.6-2 .4-2.8.4l-.8-1.6c1.4.2 2 .2 2.8-.2.6-.4 1-.8.8-1.2-.6-1.2-4 .8-5.2-1.8-.6-1.2 0-2.6 1.8-3.4.8-.4 1.6-.4 2.6-.4z"/></svg>